<svg xmlns="http://www.w3.org/2000/svg" xmlns:xlink="http://www.w3.org/1999/xlink" width="436" height="1095" viewBox="0 0 436 1095">
  <defs>
    <filter id="Path_11727" x="43" y="17" width="393" height="1053" filterUnits="userSpaceOnUse">
      <feOffset dy="3" input="SourceAlpha"/>
      <feGaussianBlur stdDeviation="3" result="blur"/>
      <feFlood flood-opacity="0.161"/>
      <feComposite operator="in" in2="blur"/>
      <feComposite in="SourceGraphic"/>
    </filter>
    <filter id="Rectangle_717" x="43" y="170" width="393" height="925" filterUnits="userSpaceOnUse">
      <feOffset dy="-8" input="SourceAlpha"/>
      <feGaussianBlur stdDeviation="3" result="blur-2"/>
      <feFlood flood-opacity="0.102"/>
      <feComposite operator="in" in2="blur-2"/>
      <feComposite in="SourceGraphic"/>
    </filter>
  </defs>
  <g id="Group_2532" data-name="Group 2532" transform="translate(-4870 -163)">
    <g transform="matrix(1, 0, 0, 1, 4870, 163)" filter="url(#Path_11727)">
      <path id="Path_11727-2" data-name="Path 11727" d="M30,0H345c16.569,0,30,17.12,30,38.239V996.761c0,21.119-13.431,38.239-30,38.239H30c-16.569,0-30-17.12-30-38.239V38.239C0,17.12,13.431,0,30,0Z" transform="translate(52 23)" fill="#bb0a36"/>
    </g>
    <g id="Ellipse_63" data-name="Ellipse 63" transform="translate(4870 163)" fill="none" stroke="#fff" stroke-width="50" opacity="0.1">
      <circle cx="147" cy="147" r="147" stroke="none"/>
      <circle cx="147" cy="147" r="122" fill="none"/>
    </g>
    <g transform="matrix(1, 0, 0, 1, 4870, 163)" filter="url(#Rectangle_717)">
      <path id="Rectangle_717-2" data-name="Rectangle 717" d="M30,0H345a30,30,0,0,1,30,30V907a0,0,0,0,1,0,0H0a0,0,0,0,1,0,0V30A30,30,0,0,1,30,0Z" transform="translate(52 187)" fill="#fff"/>
    </g>
  </g>
</svg>
