<svg id="Group_729" data-name="Group 729" xmlns="http://www.w3.org/2000/svg" width="23.967" height="23.97" viewBox="0 0 23.967 23.97">
  <path id="Path_158" data-name="Path 158" d="M-109.662,377.113a5.2,5.2,0,0,0,5.707.038,6.351,6.351,0,0,0,2.857-6.708,5.517,5.517,0,0,0-4.393-4.559c-.225-.055-.453-.093-.68-.139h-1.217c-.143.031-.285.066-.428.091a5.462,5.462,0,0,0-3.555,2.133,6.033,6.033,0,0,0-1.093,4.935A6.005,6.005,0,0,0-109.662,377.113Zm.589-8.935a4.051,4.051,0,0,1,6.212,2.406,4.76,4.76,0,0,1-1.8,4.945,3.732,3.732,0,0,1-5.024-.71,4.951,4.951,0,0,1-1.136-3.307A3.918,3.918,0,0,1-109.073,368.178Z" transform="translate(118.763 -365.745)" fill="#2d414b"/>
  <path id="Path_159" data-name="Path 159" d="M-123.02,450.343a22.767,22.767,0,0,0-.279-2.408,7.855,7.855,0,0,0-3.891-5.426,12.912,12.912,0,0,0-5.79-1.535,43.5,43.5,0,0,0-4.977.082,12.952,12.952,0,0,0-4.049,1.041,7.962,7.962,0,0,0-4.137,4.1,11.019,11.019,0,0,0-.838,4.161.958.958,0,0,0,1.019,1.056c3.384-.017,6.768-.008,10.152-.008s8.383-.009,11.767.008A.939.939,0,0,0-123.02,450.343Zm-1.814-.705h-20.344c.033-.281.055-.556.1-.828a7.278,7.278,0,0,1,.9-2.584,6.171,6.171,0,0,1,2.348-2.256,10.117,10.117,0,0,1,3.7-1.133,34.384,34.384,0,0,1,5.978-.038,10.273,10.273,0,0,1,3.982,1.166,6.006,6.006,0,0,1,2.92,3.528c.193.62.282,1.272.414,1.911A1.305,1.305,0,0,1-124.834,449.638Z" transform="translate(146.981 -427.442)" fill="#2d414b"/>
</svg>
