<svg id="Group_726" data-name="Group 726" xmlns="http://www.w3.org/2000/svg" width="24.083" height="23.97" viewBox="0 0 24.083 23.97">
  <path id="Path_150" data-name="Path 150" d="M-508.543,369.556a3.626,3.626,0,0,0-1.816-3.26,8.465,8.465,0,0,0-1.419-.551h-17.6a8.6,8.6,0,0,0-1.29.469,3.672,3.672,0,0,0-1.9,2.72,1.108,1.108,0,0,1-.055.167V389a3.326,3.326,0,0,0,.188.332.923.923,0,0,0,1.469.052q2.47-2.125,4.931-4.26a.765.765,0,0,1,.545-.2q6.612.008,13.224,0a3.747,3.747,0,0,0,3.72-3.828C-508.533,377.246-508.528,373.4-508.543,369.556ZM-512.405,383q-6.743,0-13.485,0a1.508,1.508,0,0,0-1.052.4c-1.193,1.043-2.4,2.075-3.6,3.111-.057.049-.119.092-.226.173v-.33q0-8.284,0-16.567a1.929,1.929,0,0,1,1.051-1.907,2.167,2.167,0,0,1,.919-.209q8.218-.018,16.437-.007a1.9,1.9,0,0,1,1.968,2.031q.009,5.632,0,11.265A1.909,1.909,0,0,1-512.405,383Z" transform="translate(532.616 -365.745)" fill="#2d414b"/>
  <path id="Path_151" data-name="Path 151" d="M-489.707,397.8q-5.483,0-10.966,0a1.166,1.166,0,0,0-.314.032.961.961,0,0,0-.675,1.077.937.937,0,0,0,.937.8q2.763,0,5.527,0t5.5,0a.937.937,0,0,0,1-.96A.938.938,0,0,0-489.707,397.8Z" transform="translate(507.227 -392.049)" fill="#2d414b"/>
  <path id="Path_152" data-name="Path 152" d="M-493.4,419.169q-3.617,0-7.233,0a.939.939,0,0,0-1.013.942.94.94,0,0,0,1.012.973q1.794,0,3.588,0,1.823,0,3.646,0a.94.94,0,0,0,1.013-.942A.94.94,0,0,0-493.4,419.169Z" transform="translate(507.206 -409.58)" fill="#2d414b"/>
</svg>
