<svg xmlns="http://www.w3.org/2000/svg" width="23.977" height="23.97" viewBox="0 0 23.977 23.97">
  <path id="HOme_" data-name="HOme " d="M-281.67,377.532a2.6,2.6,0,0,1-.443.518.654.654,0,0,1-.836-.154c-.1-.1-.19-.2-.281-.3s-.165-.2-.247-.3l-.066.025v.253c0,3.226-.025,6.451.011,9.677a2.339,2.339,0,0,1-2.3,2.464q-7.83-.041-15.66,0a2.324,2.324,0,0,1-2.287-2.426c.031-3.225.01-6.451.01-9.677v-.342c-.22.232-.4.43-.588.62a.713.713,0,0,1-1.069,0,.833.833,0,0,1-.05-1.066,2.591,2.591,0,0,1,.178-.2q4.543-4.841,9.087-9.682a3.32,3.32,0,0,1,5.118,0q2.667,2.836,5.33,5.678,1.854,1.975,3.7,3.953a5.014,5.014,0,0,1,.391.549Zm-8.242,10.577h4.042c.583,0,.829-.259.829-.874q0-5.661,0-11.322a.546.546,0,0,0-.157-.414q-3.473-3.689-6.938-7.386a1.9,1.9,0,0,0-3.046,0q-3.468,3.694-6.938,7.386a.546.546,0,0,0-.162.412q.007,5.661,0,11.323c0,.618.244.878.825.878h4.046v-.337c0-1.987,0-5.571,0-7.558a2.4,2.4,0,0,1,2.338-2.482c.913,0,1.826,0,2.739,0a2.409,2.409,0,0,1,2.412,2.578c0,1.97,0,5.538,0,7.508Zm-1.506-.01c0-.06.009-.093.009-.125,0-2.035,0-5.668,0-7.7a.876.876,0,0,0-.906-.944c-.865,0-1.731,0-2.6,0-.665,0-.992.347-.993,1.053,0,1.952,0,5.5,0,7.454v.266Z" transform="translate(305.646 -365.745)" fill="#2d414b"/>
</svg>
