<svg xmlns="http://www.w3.org/2000/svg" width="24" height="24" viewBox="0 0 24 24">
  <g id="Group_2509" data-name="Group 2509" transform="translate(-4548.402 -3091.402)">
    <g id="Rectangle_712" data-name="Rectangle 712" transform="translate(4548.402 3091.402)" fill="#bb0a36" stroke="#707070" stroke-width="1" opacity="0">
      <rect width="24" height="24" stroke="none"/>
      <rect x="0.5" y="0.5" width="23" height="23" fill="none"/>
    </g>
    <g id="noun-pdf-4056926" transform="translate(4552.002 3092.083)">
      <path id="Path_11714" data-name="Path 11714" d="M189.647,56.325h10.827a.332.332,0,0,1,.332.332V78.631a.332.332,0,0,1-.332.332H184.34a.332.332,0,0,1-.332-.332V61.965a.332.332,0,0,1,.332-.332h4.28a.7.7,0,0,0,.7-.7v-4.28a.332.332,0,0,1,.332-.332Zm10.5.664H189.979v3.948A1.363,1.363,0,0,1,188.62,62.3h-3.948v16h15.471Z" transform="translate(-184.007 -56.325)" fill="#bb0a36"/>
      <path id="Path_11715" data-name="Path 11715" d="M184.115,61.743a.332.332,0,0,0,.47.47l5.307-5.307a.332.332,0,0,0-.47-.47Z" transform="translate(-184.018 -56.338)" fill="#bb0a36"/>
      <path id="Path_11716" data-name="Path 11716" d="M254.752,343.679a.332.332,0,1,0,0-.664H241.51a.332.332,0,0,0-.332.332v4.671a.332.332,0,0,0,.332.332h13.242a.332.332,0,1,0,0-.664h-12.91v-4.006Z" transform="translate(-238.285 -328.507)" fill="#bb0a36"/>
      <path id="Path_11717" data-name="Path 11717" d="M257.77,219.89a.332.332,0,1,0,0,.664h8.7a.332.332,0,0,0,0-.664Z" transform="translate(-253.722 -211.613)" fill="#bb0a36"/>
      <path id="Path_11718" data-name="Path 11718" d="M257.77,254.5a.332.332,0,1,0,0,.664h8.7a.332.332,0,0,0,0-.664Z" transform="translate(-253.722 -244.472)" fill="#bb0a36"/>
      <path id="Path_11719" data-name="Path 11719" d="M257.77,289.11a.332.332,0,1,0,0,.664h8.7a.332.332,0,0,0,0-.664Z" transform="translate(-253.722 -277.33)" fill="#bb0a36"/>
      <path id="Path_11720" data-name="Path 11720" d="M311.029,371.27H312.3a.868.868,0,0,1,.622.2.741.741,0,0,1,.207.562.763.763,0,0,1-.225.586.978.978,0,0,1-.688.211H311.8v.919h-.769Zm.769,1.056h.187a.482.482,0,0,0,.311-.077.249.249,0,0,0,.089-.2.273.273,0,0,0-.078-.2.4.4,0,0,0-.292-.081H311.8v.552Zm1.743-1.056h1.137a1.371,1.371,0,0,1,.543.091.888.888,0,0,1,.342.262,1.1,1.1,0,0,1,.2.4,1.852,1.852,0,0,1,.06.48,1.66,1.66,0,0,1-.091.616,1,1,0,0,1-.251.366.819.819,0,0,1-.344.2,1.777,1.777,0,0,1-.456.067h-1.137V371.27Zm.765.561v1.353h.187a.787.787,0,0,0,.341-.053.362.362,0,0,0,.159-.186,1.175,1.175,0,0,0,.057-.43.835.835,0,0,0-.128-.538.544.544,0,0,0-.426-.145h-.191Zm1.919-.561h1.892v.532h-1.124v.432h.959v.5h-.959v1.012h-.769V371.27Z" transform="translate(-304.601 -355.332)" fill="#bb0a36"/>
    </g>
  </g>
</svg>
