<svg id="Verification_Code_" data-name="Verification Code " xmlns="http://www.w3.org/2000/svg" xmlns:xlink="http://www.w3.org/1999/xlink" width="194.625" height="190.212" viewBox="0 0 194.625 190.212">
  <defs>
    <clipPath id="clip-path">
      <rect id="Rectangle_145" data-name="Rectangle 145" width="194.625" height="190.212" fill="none"/>
    </clipPath>
    <clipPath id="clip-path-4">
      <rect id="Rectangle_133" data-name="Rectangle 133" width="29.755" height="44.732" fill="#bb0a36"/>
    </clipPath>
    <clipPath id="clip-path-5">
      <rect id="Rectangle_134" data-name="Rectangle 134" width="7.597" height="11.744" fill="none"/>
    </clipPath>
    <clipPath id="clip-path-8">
      <rect id="Rectangle_138" data-name="Rectangle 138" width="1.506" height="1.53" fill="none"/>
    </clipPath>
    <clipPath id="clip-path-9">
      <rect id="Rectangle_139" data-name="Rectangle 139" width="18.479" height="9.428" fill="none"/>
    </clipPath>
    <clipPath id="clip-path-10">
      <rect id="Rectangle_140" data-name="Rectangle 140" width="1.549" height="1.546" fill="none"/>
    </clipPath>
    <clipPath id="clip-path-11">
      <rect id="Rectangle_141" data-name="Rectangle 141" width="19.904" height="1.727" fill="none"/>
    </clipPath>
    <clipPath id="clip-path-12">
      <rect id="Rectangle_142" data-name="Rectangle 142" width="6.201" height="5.502" fill="none"/>
    </clipPath>
  </defs>
  <g id="Group_781" data-name="Group 781" clip-path="url(#clip-path)">
    <g id="Group_751" data-name="Group 751">
      <g id="Group_750" data-name="Group 750" clip-path="url(#clip-path)">
        <path id="Path_51" data-name="Path 51" d="M330.2,322.4a17.458,17.458,0,0,0-7.471-2.571,4.979,4.979,0,0,0-3.534.649.727.727,0,0,0-.364.646.788.788,0,0,0,.345.441,10.682,10.682,0,0,0,11.023.835" transform="translate(-182.329 -182.866)" fill="#e0e0e0"/>
        <path id="Path_52" data-name="Path 52" d="M334.345,309.768a36.481,36.481,0,0,1-4.826-4.245,12.211,12.211,0,0,1-3.025-5.595,2.256,2.256,0,0,1,.239-1.872c3.846,3,6.868,6.889,7.611,11.712" transform="translate(-186.661 -170.449)" fill="#e0e0e0"/>
        <path id="Path_53" data-name="Path 53" d="M344.978,310.394a17.442,17.442,0,0,1,.089-6.335,8.564,8.564,0,0,1,3.375-5.227,7.481,7.481,0,0,1-.089,4.967,24.151,24.151,0,0,1-3.346,7.045" transform="translate(-197.142 -170.892)" fill="#e0e0e0"/>
        <path id="Path_54" data-name="Path 54" d="M341.532,341.62a11.04,11.04,0,0,0-5.991,3.032,11.331,11.331,0,0,0-3.427,5.883c2.245-.139,4.15-1.722,5.531-3.5s2.339-3.723,3.856-5.383" transform="translate(-189.926 -195.362)" fill="#e0e0e0"/>
        <path id="Path_55" data-name="Path 55" d="M354.65,325.474a14.777,14.777,0,0,1,1.706-13.978,17.793,17.793,0,0,1-1.706,13.978" transform="translate(-202.224 -178.135)" fill="#e0e0e0"/>
        <path id="Path_56" data-name="Path 56" d="M353.808,357.973a10.686,10.686,0,0,0-10.217,5.881c-.127.253-.238.575-.069.8a.76.76,0,0,0,.678.2,8.89,8.89,0,0,0,5.27-2.722,50.522,50.522,0,0,1,4.383-4.166" transform="translate(-196.4 -204.702)" fill="#e0e0e0"/>
        <path id="Path_57" data-name="Path 57" d="M366.148,338.335a19.028,19.028,0,0,1-.19-10.63,5.182,5.182,0,0,1,2.269-3.45.446.446,0,0,1,.347-.061.459.459,0,0,1,.22.254,6.406,6.406,0,0,1,.535,3.05,19.117,19.117,0,0,1-.478,3.087c-.4,1.887-.611,3.914-1.645,5.542a11.267,11.267,0,0,0-.658,1.217c-.2.414-.2.559-.377.888" transform="translate(-208.899 -185.388)" fill="#e0e0e0"/>
        <path id="Path_58" data-name="Path 58" d="M397.6,346.194a13.7,13.7,0,0,1,2.4-11.268c.173-.225.4-.465.683-.439.432.04.543.614.524,1.047a20.363,20.363,0,0,1-3.609,10.66" transform="translate(-227.168 -191.281)" fill="#e0e0e0"/>
        <path id="Path_59" data-name="Path 59" d="M400.871,358.529a16.391,16.391,0,0,0,13.451-2.736,10.893,10.893,0,0,0-7.282-.893,10.387,10.387,0,0,0-6.169,3.629" transform="translate(-229.246 -202.804)" fill="#e0e0e0"/>
        <path id="Path_60" data-name="Path 60" d="M403.212,348.525a15.544,15.544,0,0,1,12.207-7.059,7.519,7.519,0,0,1-3.993,4.414,22.141,22.141,0,0,1-5.86,1.714,4.132,4.132,0,0,0-2.355.931" transform="translate(-230.584 -195.274)" fill="#e0e0e0"/>
        <path id="Path_61" data-name="Path 61" d="M396.337,310.91a35.472,35.472,0,0,0,1.561-7.149,11.907,11.907,0,0,0-1.424-7.072,15.567,15.567,0,0,0-.208,14.466" transform="translate(-225.65 -169.667)" fill="#e0e0e0"/>
        <path id="Path_62" data-name="Path 62" d="M417.256,307.7a19.156,19.156,0,0,1,14.1-9.593c-2.2,5.477-8.2,9.71-14.1,9.593" transform="translate(-238.616 -170.481)" fill="#e0e0e0"/>
        <path id="Path_63" data-name="Path 63" d="M413.2,321.716c4.119.628,7.629,3.258,11.479,4.854a5.143,5.143,0,0,0,2.6.5,2.032,2.032,0,0,0,1.272-3.594,5.549,5.549,0,0,0-1.885-1.144,20.953,20.953,0,0,0-13.107-.731" transform="translate(-236.295 -183.508)" fill="#e0e0e0"/>
        <path id="Path_64" data-name="Path 64" d="M407.628,329.3a4.866,4.866,0,0,1,1.99,1.379,21.473,21.473,0,0,0,8.7,4.472c.333.083.769.116.934-.185.144-.262-.038-.58-.225-.814a11.982,11.982,0,0,0-5.256-3.568c-2.009-.748-3.75-1.65-6.148-1.456" transform="translate(-233.11 -188.202)" fill="#e0e0e0"/>
        <path id="Path_65" data-name="Path 65" d="M401.345,288.208a16.475,16.475,0,0,0,12.63,4.3.865.865,0,0,0,.575-.206c.318-.346-.064-.88-.434-1.168a14.552,14.552,0,0,0-12.772-2.922" transform="translate(-229.517 -164.562)" fill="#e0e0e0"/>
        <path id="Path_66" data-name="Path 66" d="M408.8,281.495a17.6,17.6,0,0,1,15.76-2.6,12.512,12.512,0,0,1-7.51,3.3,23.772,23.772,0,0,1-8.25-.7" transform="translate(-233.777 -159.017)" fill="#e0e0e0"/>
        <path id="Path_67" data-name="Path 67" d="M402.99,252.457c-.365-3.706-.128-6.632-.385-10.356-.021-.3-.084-.655-.363-.762-.387-.149-.711.327-.838.722a11.87,11.87,0,0,0,1.58,10.315" transform="translate(-229.24 -137.998)" fill="#e0e0e0"/>
        <path id="Path_68" data-name="Path 68" d="M405.211,252.738a21.8,21.8,0,0,0,6.14-5.967c1.212-1.659,2.235-3.647,1.959-5.684a5.878,5.878,0,0,0-4.429,2.2,12.366,12.366,0,0,0-2.258,4.542c-.491,1.631-.836,3.307-1.412,4.909" transform="translate(-231.728 -137.87)" fill="#e0e0e0"/>
        <path id="Path_69" data-name="Path 69" d="M419.195,251.988a49.511,49.511,0,0,0,15.11-8.909,7.715,7.715,0,0,0-5.676.436,17.9,17.9,0,0,0-9.513,8.433" transform="translate(-239.679 -138.795)" fill="#e0e0e0"/>
        <path id="Path_70" data-name="Path 70" d="M409.172,267.2a30.733,30.733,0,0,0,8.39.041,35.631,35.631,0,0,0,7.833-2.6.92.92,0,0,0,.532-.4.612.612,0,0,0-.19-.67,1.624,1.624,0,0,0-.668-.313,14.5,14.5,0,0,0-8.465.506,39.282,39.282,0,0,0-7.432,3.443" transform="translate(-233.993 -150.304)" fill="#e0e0e0"/>
        <path id="Path_71" data-name="Path 71" d="M370.1,272.692a14.841,14.841,0,0,1-.135-12.283,9.381,9.381,0,0,1,1.087,6.107c-.211,2.1-.85,4.258-.892,6.367" transform="translate(-210.852 -148.92)" fill="#e0e0e0"/>
        <path id="Path_72" data-name="Path 72" d="M337.211,280.139a17.131,17.131,0,0,0-12.73,5.423,11.9,11.9,0,0,0,6.97-1.293,35.427,35.427,0,0,0,5.974-4" transform="translate(-185.561 -160.201)" fill="#e0e0e0"/>
        <path id="Path_73" data-name="Path 73" d="M326.281,275.852c-2.324-.188-4.561-.476-6.8.208a8.151,8.151,0,0,0-5.18,4.392,12.277,12.277,0,0,0,6.371-1.2,36.666,36.666,0,0,0,5.6-3.4" transform="translate(-179.742 -157.623)" fill="#e0e0e0"/>
        <path id="Path_74" data-name="Path 74" d="M341.752,271.567a21.438,21.438,0,0,0-6.673-3.333c-2.434-.567-5.256-.148-6.953,1.687a12.994,12.994,0,0,0,6.647,1.291,22.959,22.959,0,0,1,7.241.735" transform="translate(-187.644 -153.26)" fill="#e0e0e0"/>
        <path id="Path_75" data-name="Path 75" d="M354.562,257.069c-3.575-3.51-4.93-9.816-3.492-14.615a22.272,22.272,0,0,1,3.492,14.615" transform="translate(-200.443 -138.652)" fill="#e0e0e0"/>
        <path id="Path_76" data-name="Path 76" d="M382.941,237.953c.674-1.567,1.148-3.212,1.753-4.807a13.82,13.82,0,0,1,2.5-4.432,6.584,6.584,0,0,1,4.427-2.294,17.83,17.83,0,0,1-8.593,11.56" transform="translate(-218.992 -129.482)" fill="#e0e0e0"/>
        <path id="Path_77" data-name="Path 77" d="M366.434,249.786c-1.116-1.536-2.4-3.62-3.918-4.766a6.554,6.554,0,0,0-5.329-1.4,12.414,12.414,0,0,0,9.247,6.166" transform="translate(-204.264 -139.243)" fill="#e0e0e0"/>
        <path id="Path_78" data-name="Path 78" d="M377.089,238.274a26.528,26.528,0,0,1-1.763-5.711,8.911,8.911,0,0,1,.894-5.807c1.962,3.709,2.595,7.691.97,11.56" transform="translate(-214.564 -129.675)" fill="#e0e0e0"/>
        <path id="Path_79" data-name="Path 79" d="M382.983,216.255c1.111-3.677,4.479-6.384,8.114-7.627a3.033,3.033,0,0,1,1.423-.214,1.235,1.235,0,0,1,1.048.876c.133.626-.384,1.186-.87,1.6a27.61,27.61,0,0,1-9.714,5.364" transform="translate(-219.016 -119.174)" fill="#e0e0e0"/>
        <path id="Path_80" data-name="Path 80" d="M383,203.223a26.321,26.321,0,0,1,1.06-7.023,8.876,8.876,0,0,1,4.419-5.337c.368,2.395-.688,4.777-1.963,6.837s-2.81,4.006-3.575,6.3" transform="translate(-218.992 -109.149)" fill="#e0e0e0"/>
        <path id="Path_81" data-name="Path 81" d="M373.731,206.326c-.919-2.68-1.013-6.084-2.618-8.418-1.122-1.632-2.918-2.744-3.884-4.472a6.8,6.8,0,0,0,.226,5.077,14.688,14.688,0,0,0,2.969,4.25c1.187,1.268,2.2,2.222,3.308,3.564" transform="translate(-209.782 -110.619)" fill="#e0e0e0"/>
        <path id="Path_82" data-name="Path 82" d="M382.8,301.215c-.071,0-.133-17.877-.138-39.925s.049-39.928.12-39.928.133,17.873.138,39.928-.049,39.925-.12,39.925" transform="translate(-218.831 -126.591)" fill="#e0e0e0"/>
        <path id="Path_83" data-name="Path 83" d="M398.575,282.794a3.807,3.807,0,0,1-.672.252l-1.85.624c-1.56.531-3.7,1.3-6.028,2.254-2.3.988-4.474,1.79-5.71,2.861a4.2,4.2,0,0,0-1.147,1.518c-.178.42-.209.676-.233.672a.523.523,0,0,1,.008-.187,2.833,2.833,0,0,1,.131-.521,4.033,4.033,0,0,1,1.12-1.618,10.035,10.035,0,0,1,2.478-1.539c.991-.463,2.09-.945,3.256-1.424,2.333-.956,4.492-1.7,6.069-2.189.788-.246,1.432-.427,1.877-.546a3.821,3.821,0,0,1,.7-.156" transform="translate(-218.985 -161.719)" fill="#e0e0e0"/>
        <path id="Path_84" data-name="Path 84" d="M405.337,253.418a1.093,1.093,0,0,1-.188.2l-.574.539-2.142,1.945-7.128,6.347c-2.782,2.477-5.187,4.843-6.853,6.625-.834.89-1.492,1.627-1.94,2.142l-.518.591a1.1,1.1,0,0,1-.194.2,1.127,1.127,0,0,1,.153-.229c.108-.144.266-.358.481-.623.425-.536,1.063-1.293,1.883-2.2a90.412,90.412,0,0,1,6.815-6.694c2.792-2.471,5.333-4.691,7.179-6.291l2.2-1.884.605-.5a1.09,1.09,0,0,1,.223-.162" transform="translate(-220.627 -144.922)" fill="#e0e0e0"/>
        <path id="Path_85" data-name="Path 85" d="M400.979,272.13c-.073-.033.508-1.375,1.087-3.072s.86-3.129.934-3.117a10.489,10.489,0,0,1-.689,3.2,20.879,20.879,0,0,1-.866,2.149,3.338,3.338,0,0,1-.467.84" transform="translate(-229.304 -152.083)" fill="#e0e0e0"/>
        <path id="Path_86" data-name="Path 86" d="M369.18,288.235a3.183,3.183,0,0,1-.429-.5l-1.1-1.408c-.923-1.193-2.2-2.839-3.628-4.641s-2.745-3.418-3.7-4.587l-1.122-1.389a3.216,3.216,0,0,1-.387-.53,3.189,3.189,0,0,1,.464.465c.286.31.692.767,1.186,1.337.989,1.14,2.327,2.74,3.759,4.544s2.686,3.47,3.572,4.691c.443.611.8,1.109,1.034,1.458a3.175,3.175,0,0,1,.348.557" transform="translate(-205.197 -157.367)" fill="#e0e0e0"/>
        <path id="Path_87" data-name="Path 87" d="M372.645,288.181a6.3,6.3,0,0,1-1.435-2.687,7.669,7.669,0,0,1-.325-2.708l.114.009c-.051.207-.089.316-.109.313s-.021-.119,0-.331l.114.009a12.339,12.339,0,0,0,.459,2.635,20.089,20.089,0,0,0,1.187,2.76" transform="translate(-212.088 -161.711)" fill="#e0e0e0"/>
        <path id="Path_88" data-name="Path 88" d="M354.355,280.939a4.627,4.627,0,0,0-1-.582,6.7,6.7,0,0,0-2.782-.221,17.186,17.186,0,0,0-2.8.452,8.472,8.472,0,0,1-1.153.277,4.016,4.016,0,0,1,1.1-.453,12.785,12.785,0,0,1,2.831-.534,6.073,6.073,0,0,1,2.87.31,1.777,1.777,0,0,1,.933.751" transform="translate(-198.22 -160.032)" fill="#e0e0e0"/>
        <path id="Path_89" data-name="Path 89" d="M347.72,277.062c-.02.04-.584-.234-1.535-.559a15.45,15.45,0,0,0-7.735-.59c-.99.177-1.589.362-1.6.32a1.443,1.443,0,0,1,.407-.173,9.513,9.513,0,0,1,1.159-.326,13.655,13.655,0,0,1,7.834.6,9.6,9.6,0,0,1,1.1.5,1.463,1.463,0,0,1,.376.233" transform="translate(-192.633 -157.504)" fill="#e0e0e0"/>
        <path id="Path_90" data-name="Path 90" d="M380.274,255.468a63.344,63.344,0,0,1-1.989-7.841,63.382,63.382,0,0,1,1.989,7.841" transform="translate(-216.325 -141.61)" fill="#e0e0e0"/>
        <path id="Path_91" data-name="Path 91" d="M379.009,260.308a18.721,18.721,0,0,0-1.241-2.328,10.272,10.272,0,0,0-1.826-1.885,1.709,1.709,0,0,1,.7.363,5.681,5.681,0,0,1,1.333,1.373,5.161,5.161,0,0,1,1.029,2.476" transform="translate(-214.989 -146.451)" fill="#e0e0e0"/>
        <path id="Path_92" data-name="Path 92" d="M361.107,350.765c-.028,0-.08-.43-.282-1.189a16.93,16.93,0,0,0-1.195-3.095,42.825,42.825,0,0,0-6.338-8.93c-1.415-1.617-2.788-3.142-3.953-4.6a32.291,32.291,0,0,1-2.827-4.078,19.544,19.544,0,0,1-1.427-3.025c-.131-.373-.228-.664-.28-.866a1.466,1.466,0,0,1-.074-.309c.023-.007.153.409.448,1.138a22.151,22.151,0,0,0,1.491,2.969,34.213,34.213,0,0,0,2.855,4.02c1.17,1.445,2.545,2.962,3.962,4.581a40.618,40.618,0,0,1,6.309,9.02,15.442,15.442,0,0,1,1.127,3.151,8.668,8.668,0,0,1,.158.9,1.45,1.45,0,0,1,.026.316" transform="translate(-197.14 -185.67)" fill="#e0e0e0"/>
        <path id="Path_93" data-name="Path 93" d="M397.1,348.372a6.489,6.489,0,0,1-.74.415,16.214,16.214,0,0,0-1.919,1.269,22.074,22.074,0,0,0-2.52,2.3c-.885.935-1.8,2.02-2.726,3.183-1.859,2.333-3.6,4.4-4.64,6.045-.529.817-.913,1.507-1.165,1.99a6.415,6.415,0,0,1-.407.745.708.708,0,0,1,.069-.21c.055-.133.13-.333.248-.579a18.814,18.814,0,0,1,1.1-2.043,66.578,66.578,0,0,1,4.593-6.109c.932-1.165,1.854-2.252,2.755-3.186a20.5,20.5,0,0,1,2.583-2.28,13.5,13.5,0,0,1,1.982-1.211c.245-.123.445-.2.578-.256a.71.71,0,0,1,.209-.071" transform="translate(-219.014 -199.222)" fill="#e0e0e0"/>
        <path id="Path_94" data-name="Path 94" d="M403.57,360.432a10.741,10.741,0,0,1-1.564.227,20.612,20.612,0,0,0-3.708.73,11.142,11.142,0,0,0-3.321,1.742c-.766.592-1.126,1.081-1.162,1.052a1.2,1.2,0,0,1,.232-.36,5.921,5.921,0,0,1,.815-.834,10.055,10.055,0,0,1,3.357-1.847,16.767,16.767,0,0,1,3.77-.666,8.651,8.651,0,0,1,1.582-.045" transform="translate(-225.209 -206.109)" fill="#e0e0e0"/>
        <path id="Path_95" data-name="Path 95" d="M394.873,360.817c-.082-.046.623-1.123,1.17-2.571.513-1.461.633-2.743.725-2.728a2.475,2.475,0,0,1-.026.839,9,9,0,0,1-.456,1.977,9.532,9.532,0,0,1-.907,1.813,2.517,2.517,0,0,1-.506.67" transform="translate(-225.812 -203.31)" fill="#e0e0e0"/>
        <path id="Path_96" data-name="Path 96" d="M401.677,315.935a1.2,1.2,0,0,1-.25.133l-.735.334c-.322.138-.713.313-1.153.545s-.957.463-1.494.785l-.853.485c-.3.17-.588.372-.9.567-.629.382-1.259.851-1.932,1.331a33.157,33.157,0,0,0-7.438,7.7c-.456.689-.9,1.335-1.264,1.976-.185.318-.376.617-.536.919l-.456.869c-.3.548-.521,1.071-.734,1.52s-.379.844-.505,1.171l-.309.746a.142.142,0,1,1-.049-.018l.264-.765c.113-.333.262-.737.467-1.192s.408-.989.7-1.545l.444-.882c.156-.306.345-.61.526-.932.354-.651.8-1.305,1.253-2a31.924,31.924,0,0,1,7.493-7.753c.682-.478,1.32-.944,1.959-1.321.316-.192.613-.391.914-.558l.866-.474c.545-.314,1.069-.539,1.519-.755s.846-.383,1.176-.507l.755-.29a1.131,1.131,0,0,1,.269-.085" transform="translate(-219.022 -180.673)" fill="#e0e0e0"/>
        <path id="Path_97" data-name="Path 97" d="M400.536,330.929a1.8,1.8,0,0,1,.614-.915,3.876,3.876,0,0,1,2.475-.95,6.765,6.765,0,0,1,2.6.509,3.72,3.72,0,0,1,.985.479,6.049,6.049,0,0,1-1.045-.306,7.874,7.874,0,0,0-2.537-.423,4.035,4.035,0,0,0-2.365.83,7.294,7.294,0,0,0-.733.777" transform="translate(-229.052 -188.181)" fill="#e0e0e0"/>
        <path id="Path_98" data-name="Path 98" d="M396.631,331.2a6.612,6.612,0,0,0,.545-4.674,1.521,1.521,0,0,1,.29.666,4.728,4.728,0,0,1-.4,3.426c-.218.4-.411.6-.436.581" transform="translate(-226.818 -186.731)" fill="#e0e0e0"/>
        <path id="Path_99" data-name="Path 99" d="M354.144,391.6c.385,6.832,2.444,13.78,5.611,20.8h13.77a59.828,59.828,0,0,0,5.277-20.8Z" transform="translate(-202.524 -223.944)" fill="#e0e0e0"/>
        <path id="Path_100" data-name="Path 100" d="M379.475,417.25c0,.071-4.534.129-10.126.129s-10.126-.058-10.126-.129,4.533-.129,10.126-.129,10.126.058,10.126.129" transform="translate(-205.428 -238.539)" fill="#fafafa"/>
        <path id="Path_101" data-name="Path 101" d="M380.448,423.031c0,.072-4.25.129-9.493.129s-9.493-.058-9.493-.129,4.25-.129,9.493-.129,9.493.058,9.493.129" transform="translate(-206.709 -241.844)" fill="#fafafa"/>
        <path id="Path_102" data-name="Path 102" d="M367.594,402.078a38.976,38.976,0,0,1,0,6.344,38.958,38.958,0,0,1,0-6.344" transform="translate(-210.142 -229.936)" fill="#fafafa"/>
        <path id="Path_103" data-name="Path 103" d="M384.827,402.078a41.784,41.784,0,0,1,0,6.569,41.784,41.784,0,0,1,0-6.569" transform="translate(-219.997 -229.936)" fill="#fafafa"/>
        <path id="Path_104" data-name="Path 104" d="M401.005,401.948a43.464,43.464,0,0,1,0,6.7,43.474,43.474,0,0,1,0-6.7" transform="translate(-229.249 -229.862)" fill="#fafafa"/>
        <path id="Path_105" data-name="Path 105" d="M378.989,401.905c0,.071-5.318.129-11.876.129s-11.877-.058-11.877-.129,5.317-.129,11.877-.129,11.876.058,11.876.129" transform="translate(-203.148 -229.763)" fill="#fafafa"/>
        <rect id="Rectangle_124" data-name="Rectangle 124" width="32.993" height="34.393" transform="translate(150.338 0.01)" fill="#e0e0e0"/>
        <rect id="Rectangle_125" data-name="Rectangle 125" width="32.993" height="34.393" transform="translate(148.104 0.01)" fill="#fafafa"/>
        <path id="Path_106" data-name="Path 106" d="M378.921,34.414H345.907V0h33.014Zm-32.994-.021H378.9V.021H345.928Z" transform="translate(-197.813)" fill="#e0e0e0"/>
        <rect id="Rectangle_126" data-name="Rectangle 126" width="24.123" height="25.146" transform="translate(152.539 4.634)" fill="#fff"/>
        <path id="Path_107" data-name="Path 107" d="M350.408,69.947a3.952,3.952,0,0,1-.6.692c-.385.407-.927.957-1.534,1.555s-1.165,1.131-1.576,1.509a3.826,3.826,0,0,1-.7.581,3.873,3.873,0,0,1,.593-.689c.385-.406.928-.958,1.537-1.558s1.167-1.133,1.579-1.511a3.758,3.758,0,0,1,.694-.578" transform="translate(-197.869 -40)" fill="#e0e0e0"/>
        <path id="Path_108" data-name="Path 108" d="M412.633,69.8a3.963,3.963,0,0,1,.692.6c.406.385.957.927,1.555,1.534s1.13,1.165,1.508,1.576a3.889,3.889,0,0,1,.581.7,3.822,3.822,0,0,1-.689-.592c-.407-.385-.958-.928-1.558-1.537s-1.133-1.168-1.511-1.579a3.781,3.781,0,0,1-.578-.694" transform="translate(-235.971 -39.917)" fill="#e0e0e0"/>
        <path id="Path_109" data-name="Path 109" d="M412.48,5.187a3.954,3.954,0,0,1,.6-.692c.385-.406.926-.956,1.533-1.554s1.165-1.131,1.576-1.509a3.825,3.825,0,0,1,.7-.581,3.846,3.846,0,0,1-.592.689c-.385.407-.928.958-1.537,1.558s-1.168,1.133-1.579,1.511a3.784,3.784,0,0,1-.694.578" transform="translate(-235.884 -0.486)" fill="#e0e0e0"/>
        <path id="Path_110" data-name="Path 110" d="M350.343,5.243a3.913,3.913,0,0,1-.692-.6c-.406-.385-.956-.927-1.554-1.534s-1.131-1.165-1.509-1.576a3.851,3.851,0,0,1-.581-.7,3.805,3.805,0,0,1,.689.592c.407.385.958.928,1.558,1.537s1.133,1.168,1.511,1.579a3.745,3.745,0,0,1,.578.694" transform="translate(-197.87 -0.48)" fill="#e0e0e0"/>
        <path id="Path_111" data-name="Path 111" d="M380.2,35.827a1.184,1.184,0,0,1-.005-.122c0-.086,0-.2-.006-.351,0-.315-.006-.768-.011-1.358-.006-1.191-.014-2.924-.024-5.125-.012-4.4-.027-10.678-.047-18.191l.093.093-24.055.014h0l.107-.107c-.006,9.23-.011,17.864-.015,25.146l-.092-.092,17.419.047,4.893.024,1.295.011.334.005a1.074,1.074,0,0,1,.116.005.768.768,0,0,1-.106.005l-.325.005-1.277.011-4.872.024-17.477.047h-.092v-.092c0-7.282-.009-15.917-.015-25.146v-.107h.11l24.055.014h.093v.093c-.02,7.537-.036,13.832-.048,18.25-.011,2.192-.019,3.918-.024,5.1,0,.581-.008,1.028-.011,1.34,0,.146,0,.258-.006.341a.853.853,0,0,1-.005.112" transform="translate(-203.608 -6.047)" fill="#e0e0e0"/>
        <rect id="Rectangle_127" data-name="Rectangle 127" width="8.049" height="8.049" transform="translate(160.576 13.182)" fill="#ebebeb"/>
        <rect id="Rectangle_128" data-name="Rectangle 128" width="37.676" height="54.61" transform="translate(1.894 54.348)" fill="#e0e0e0"/>
        <rect id="Rectangle_129" data-name="Rectangle 129" width="37.676" height="54.61" transform="translate(0.007 54.348)" fill="#f5f5f5"/>
        <rect id="Rectangle_130" data-name="Rectangle 130" width="28.314" height="42.781" transform="translate(4.688 60.262)" fill="#fff"/>
        <path id="Path_112" data-name="Path 112" d="M39.127,183.4s0-.072-.006-.209,0-.342-.006-.607c0-.537-.006-1.325-.012-2.346-.006-2.051-.014-5.038-.025-8.813-.011-7.544-.027-18.226-.046-30.806l.094.094-28.311.008h0l.1-.1c-.008,16.139-.015,31.019-.021,42.781l-.082-.082,20.609.043,5.694.021,1.495.009c.338,0,.517.009.517.009s-.167.006-.5.009l-1.479.009-5.676.021-20.66.043h-.082V183.4c-.006-11.762-.013-26.642-.021-42.781v-.1h.106l28.311.009h.094v.094c-.019,12.605-.035,23.309-.046,30.868-.011,3.765-.019,6.746-.025,8.791,0,1.014-.009,1.794-.011,2.328,0,.259,0,.457-.006.6s-.006.2-.006.2" transform="translate(-6.125 -80.358)" fill="#e0e0e0"/>
        <path id="Path_113" data-name="Path 113" d="M81.41,126.941a6.524,6.524,0,0,1-.672.976c-.438.585-1.059,1.382-1.768,2.242s-1.372,1.623-1.862,2.165a6.519,6.519,0,0,1-.829.846,7.112,7.112,0,0,1,.719-.941l1.814-2.2,1.812-2.2a7.044,7.044,0,0,1,.785-.886" transform="translate(-43.621 -72.593)" fill="#e0e0e0"/>
        <path id="Path_114" data-name="Path 114" d="M77.421,240.36a35.063,35.063,0,0,0,4.938,6.176" transform="translate(-44.275 -137.454)" fill="#fff"/>
        <path id="Path_115" data-name="Path 115" d="M82.357,246.536a5.62,5.62,0,0,1-.861-.783,27.638,27.638,0,0,1-3.5-4.381,5.633,5.633,0,0,1-.575-1.012,7.775,7.775,0,0,1,.694.931c.416.583,1,1.381,1.68,2.233s1.331,1.6,1.808,2.13a7.778,7.778,0,0,1,.755.882" transform="translate(-44.273 -137.454)" fill="#e0e0e0"/>
        <path id="Path_116" data-name="Path 116" d="M0,246.263l4.935-6.089" transform="translate(-0.002 -137.348)" fill="#fff"/>
        <path id="Path_117" data-name="Path 117" d="M4.936,240.173a37.549,37.549,0,0,1-2.388,3.109A37.594,37.594,0,0,1,0,246.262a37.512,37.512,0,0,1,2.388-3.109,37.466,37.466,0,0,1,2.547-2.98" transform="translate(0 -137.347)" fill="#e0e0e0"/>
        <path id="Path_118" data-name="Path 118" d="M.014,126.941a34.054,34.054,0,0,1,2.4,2.863A34.156,34.156,0,0,1,4.644,132.8a33.992,33.992,0,0,1-2.4-2.864,34.089,34.089,0,0,1-2.234-2.99" transform="translate(-0.007 -72.593)" fill="#e0e0e0"/>
        <rect id="Rectangle_131" data-name="Rectangle 131" width="9.481" height="26.918" transform="translate(14.699 68.949)" fill="#e0e0e0"/>
      </g>
    </g>
    <g id="Group_759" data-name="Group 759">
      <g id="Group_758" data-name="Group 758" clip-path="url(#clip-path)">
        <path id="Path_119" data-name="Path 119" d="M33.181,37.23a15.472,15.472,0,0,0-8.445,20.157l9.591,23.422,4.3-1.762L29.039,55.625a10.8,10.8,0,1,1,20-8.188l4.3-1.762A15.471,15.471,0,0,0,33.181,37.23" transform="translate(-13.486 -20.632)" fill="#ff725e"/>
        <g id="Group_754" data-name="Group 754" transform="translate(10.097 15.446)" opacity="0.3">
          <g id="Group_753" data-name="Group 753">
            <g id="Group_752" data-name="Group 752" clip-path="url(#clip-path-4)">
              <path id="Path_120" data-name="Path 120" d="M33.181,37.23a15.472,15.472,0,0,0-8.445,20.157l9.591,23.422,4.3-1.762L29.039,55.625a10.8,10.8,0,1,1,20-8.188l4.3-1.762A15.471,15.471,0,0,0,33.181,37.23" transform="translate(-23.583 -36.077)" fill="#bb0a36"/>
            </g>
          </g>
        </g>
        <path id="Path_121" data-name="Path 121" d="M74.479,110.795l-33.941,13.9a2.488,2.488,0,0,1-3.245-1.36l-8.241-20.125a2.488,2.488,0,0,1,1.36-3.245l33.941-13.9A2.488,2.488,0,0,1,67.6,87.425l8.241,20.125a2.488,2.488,0,0,1-1.36,3.245" transform="translate(-16.508 -49.112)" fill="#bb0a36"/>
        <g id="Group_757" data-name="Group 757" transform="translate(31.136 49.563)" opacity="0.5">
          <g id="Group_756" data-name="Group 756">
            <g id="Group_755" data-name="Group 755" clip-path="url(#clip-path-5)">
              <path id="Path_122" data-name="Path 122" d="M79.429,117.93a3.482,3.482,0,1,0-2.838,4.764l1.972,4.817,1.758-.72-1.972-4.817a3.471,3.471,0,0,0,1.08-4.045" transform="translate(-72.725 -115.766)"/>
            </g>
          </g>
        </g>
        <path id="Path_123" data-name="Path 123" d="M43.229,146.688c-.089.036-1.849-4.059-3.932-9.145s-3.7-9.24-3.612-9.277,1.849,4.058,3.932,9.146,3.7,9.24,3.611,9.276" transform="translate(-20.405 -73.352)" fill="#fafafa"/>
        <path id="Path_124" data-name="Path 124" d="M73.531,123.878a1.072,1.072,0,0,1-.466-.06,4.252,4.252,0,0,1-1.177-.506,4.879,4.879,0,0,1-1.17-7.432,4.256,4.256,0,0,1,.964-.843c.258-.158.415-.217.425-.2a10.974,10.974,0,0,0-1.2,1.2,4.826,4.826,0,0,0,1.114,7.073,10.834,10.834,0,0,0,1.509.771" transform="translate(-39.744 -65.67)" fill="#fafafa"/>
        <path id="Path_125" data-name="Path 125" d="M13.253,145.011l.208-.607.4.5a2.688,2.688,0,0,0,1.234.873l.607.208-.5.4a2.685,2.685,0,0,0-.873,1.234l-.208.607-.4-.5a2.69,2.69,0,0,0-1.234-.873l-.607-.208.5-.4a2.688,2.688,0,0,0,.873-1.234" transform="translate(-6.792 -82.58)" fill="#bb0a36"/>
        <path id="Path_126" data-name="Path 126" d="M61.484,89.562l.121-.352.231.292a1.564,1.564,0,0,0,.717.507l.352.121-.292.232a1.562,1.562,0,0,0-.507.716l-.121.352-.232-.292a1.561,1.561,0,0,0-.716-.506l-.353-.121.292-.232a1.559,1.559,0,0,0,.506-.716" transform="translate(-34.704 -51.016)" fill="#bb0a36"/>
        <path id="Path_127" data-name="Path 127" d="M2.4,95.618l.35-1.02.67.845A4.522,4.522,0,0,0,5.49,96.909l1.02.35-.845.67A4.515,4.515,0,0,0,4.2,100l-.35,1.02-.67-.845a4.519,4.519,0,0,0-2.073-1.466l-1.02-.35.845-.67A4.517,4.517,0,0,0,2.4,95.618" transform="translate(-0.049 -54.098)" fill="#bb0a36"/>
      </g>
    </g>
    <g id="Group_761" data-name="Group 761">
      <g id="Group_760" data-name="Group 760" clip-path="url(#clip-path)">
        <path id="Path_128" data-name="Path 128" d="M178.419,195.549l-63.2-.038a13.766,13.766,0,0,1-13.759-13.769L101.493,23.3A13.767,13.767,0,0,1,115.268,9.539l63.2.037a13.767,13.767,0,0,1,13.758,13.77l-.031,158.44a13.766,13.766,0,0,1-13.774,13.764" transform="translate(-58.023 -5.455)" fill="#263238"/>
        <path id="Path_129" data-name="Path 129" d="M183.993,22.667,171.74,22.66a3.044,3.044,0,0,0-2.976,3.109v2.223a3.044,3.044,0,0,1-2.976,3.109L141.9,31.086a3.046,3.046,0,0,1-2.975-3.112V25.751a3.047,3.047,0,0,0-2.975-3.112l-4.309,0-10.725-.006a9.641,9.641,0,0,0-9.647,9.639l-.03,154.648a9.641,9.641,0,0,0,9.636,9.644l63.072.037a9.641,9.641,0,0,0,9.647-9.639l.03-154.649a9.641,9.641,0,0,0-9.636-9.643" transform="translate(-63.617 -12.941)" fill="#fff"/>
        <path id="Path_130" data-name="Path 130" d="M190.542,399.763a1.211,1.211,0,1,1-1.221-1.2,1.211,1.211,0,0,1,1.221,1.2" transform="translate(-107.58 -227.925)" fill="#263238"/>
        <path id="Path_131" data-name="Path 131" d="M206.388,399.632a1.211,1.211,0,1,1-1.221-1.2,1.211,1.211,0,0,1,1.221,1.2" transform="translate(-116.642 -227.85)" fill="#263238"/>
        <path id="Path_132" data-name="Path 132" d="M222.234,399.5a1.211,1.211,0,1,1-1.221-1.2,1.211,1.211,0,0,1,1.221,1.2" transform="translate(-125.704 -227.775)" fill="#263238"/>
        <path id="Path_133" data-name="Path 133" d="M272.518,59.132c0,.037-1.593.08-3.559.1s-3.559,0-3.56-.038,1.593-.08,3.559-.1,3.559,0,3.56.037" transform="translate(-151.773 -33.791)" fill="#263238"/>
        <path id="Path_134" data-name="Path 134" d="M272.554,63.386c0,.037-1.593.08-3.559.1s-3.559,0-3.56-.038,1.593-.08,3.559-.1,3.559,0,3.56.037" transform="translate(-151.794 -36.224)" fill="#263238"/>
        <path id="Path_135" data-name="Path 135" d="M272.589,67.64c0,.037-1.593.08-3.559.1s-3.559,0-3.56-.038,1.593-.08,3.559-.1,3.559,0,3.559.037" transform="translate(-151.814 -38.656)" fill="#263238"/>
        <path id="Path_136" data-name="Path 136" d="M130.706,64.6a1.193,1.193,0,0,1,.147-.009l.411-.012,1.521-.034-.037.038c-.005-.336-.011-.7-.017-1.1,0-.2-.018-.4,0-.633a.577.577,0,0,1,.5-.463c.243,0,.462-.016.724,0a.583.583,0,0,1,.492.58c.006.514.012,1.051.018,1.608l-.062-.062,1.917-.019-.065.066c-.006-.772-.014-1.571-.021-2.389q0-.306-.005-.609a.482.482,0,0,0-.078-.251,1.56,1.56,0,0,0-.194-.208l-.839-.826-.808-.8-.392-.387a.917.917,0,0,0-.4-.3.523.523,0,0,0-.447.086c-.118.1-.24.237-.357.351l-.688.694c-.433.45-.882.859-1.211,1.25a1.363,1.363,0,0,0-.1.719q0,.358,0,.676c0,.416,0,.78-.005,1.089,0,.282,0,.512-.006.7,0,.161-.008.25-.008.25s-.007-.076-.012-.232c0-.182-.011-.408-.018-.686q-.01-.467-.023-1.1c0-.216-.008-.446-.012-.688,0-.122,0-.248-.006-.376a.784.784,0,0,1,.105-.4c.353-.432.778-.819,1.214-1.281l.683-.7c.123-.12.225-.241.369-.366a.643.643,0,0,1,.55-.108,1.027,1.027,0,0,1,.457.327l.393.386.811.8.84.825a1.6,1.6,0,0,1,.213.23.621.621,0,0,1,.1.319q0,.3.006.611c.006.818.012,1.617.018,2.389v.066h-.066l-1.918.013h-.063v-.062c0-.557-.006-1.094-.009-1.608a.469.469,0,0,0-.393-.472c-.223-.012-.481,0-.7,0a.476.476,0,0,0-.419.378c-.018.195,0,.418-.008.614,0,.4,0,.766,0,1.1v.039h-.038l-1.544-.008-.4-.006a.814.814,0,0,1-.134-.006" transform="translate(-74.707 -33.542)" fill="#263238"/>
        <path id="Path_137" data-name="Path 137" d="M160.906,155.092c0,1.484-1.113,2.407-2.892,2.407h-1.341v1.836h-1.541v-6.658h2.882c1.778,0,2.892.923,2.892,2.416m-1.56,0c0-.733-.476-1.161-1.418-1.161h-1.255v2.311h1.255c.942,0,1.418-.428,1.418-1.151" transform="translate(-88.715 -87.311)" fill="#263238"/>
        <path id="Path_138" data-name="Path 138" d="M174.9,158.369v2.92h-1.389v-.637a1.679,1.679,0,0,1-1.56.714c-1.2,0-1.912-.666-1.912-1.551,0-.9.637-1.531,2.2-1.531h1.179c0-.637-.381-1.008-1.179-1.008a2.461,2.461,0,0,0-1.475.476l-.533-1.037a3.931,3.931,0,0,1,2.207-.619c1.56,0,2.464.723,2.464,2.273m-1.484,1.3v-.523H172.4c-.694,0-.913.257-.913.6,0,.371.314.618.837.618a1.093,1.093,0,0,0,1.094-.694" transform="translate(-97.241 -89.266)" fill="#263238"/>
        <path id="Path_139" data-name="Path 139" d="M183.372,160.814l.495-1.065a3.505,3.505,0,0,0,1.778.494c.685,0,.942-.181.942-.466,0-.837-3.091.019-3.091-2.026,0-.97.875-1.655,2.368-1.655a4.206,4.206,0,0,1,1.969.447l-.494,1.056a2.938,2.938,0,0,0-1.474-.381c-.666,0-.951.209-.951.476,0,.875,3.091.028,3.091,2.045,0,.951-.885,1.627-2.416,1.627a4.394,4.394,0,0,1-2.216-.552" transform="translate(-104.865 -89.266)" fill="#263238"/>
        <path id="Path_140" data-name="Path 140" d="M195.169,160.814l.494-1.065a3.506,3.506,0,0,0,1.779.494c.685,0,.942-.181.942-.466,0-.837-3.092.019-3.092-2.026,0-.97.875-1.655,2.368-1.655a4.206,4.206,0,0,1,1.969.447l-.494,1.056a2.939,2.939,0,0,0-1.475-.381c-.665,0-.95.209-.95.476,0,.875,3.091.028,3.091,2.045,0,.951-.884,1.627-2.416,1.627a4.393,4.393,0,0,1-2.216-.552" transform="translate(-111.611 -89.266)" fill="#263238"/>
        <path id="Path_141" data-name="Path 141" d="M215.216,156.275l-1.854,5.117h-1.427l-1.151-3.177-1.188,3.177h-1.427l-1.845-5.117h1.4l1.208,3.462,1.256-3.462h1.255l1.218,3.462,1.246-3.462Z" transform="translate(-117.99 -89.369)" fill="#263238"/>
        <path id="Path_142" data-name="Path 142" d="M227.5,158.732a2.817,2.817,0,1,1,2.815,2.635,2.634,2.634,0,0,1-2.815-2.635m4.119,0a1.312,1.312,0,1,0-1.3,1.417,1.291,1.291,0,0,0,1.3-1.417" transform="translate(-130.098 -89.267)" fill="#263238"/>
        <path id="Path_143" data-name="Path 143" d="M246.116,156.1v1.37c-.123-.009-.219-.019-.333-.019a1.257,1.257,0,0,0-1.36,1.427v2.416h-1.484v-5.117h1.418v.675a2.064,2.064,0,0,1,1.759-.751" transform="translate(-138.929 -89.267)" fill="#263238"/>
        <path id="Path_144" data-name="Path 144" d="M257.044,151.742V158.8h-1.417v-.59a1.969,1.969,0,0,1-1.6.666,2.636,2.636,0,0,1,0-5.269,1.968,1.968,0,0,1,1.532.618v-2.483Zm-1.455,4.5a1.312,1.312,0,1,0-1.3,1.417,1.3,1.3,0,0,0,1.3-1.417" transform="translate(-143.808 -86.777)" fill="#263238"/>
        <path id="Path_145" data-name="Path 145" d="M196.587,180.934c0,.062-15.853.111-35.4.111s-35.408-.05-35.408-.111,15.85-.111,35.408-.111,35.4.05,35.4.111" transform="translate(-71.927 -103.407)" fill="#e0e0e0"/>
        <path id="Path_146" data-name="Path 146" d="M192.711,333.2c0,.062-15.853.111-35.4.111s-35.408-.05-35.408-.111,15.85-.111,35.408-.111,35.4.05,35.4.111" transform="translate(-69.71 -190.483)" fill="#e0e0e0"/>
        <path id="Path_147" data-name="Path 147" d="M197.345,344.632c0,.062-8.807.111-19.667.111s-19.669-.05-19.669-.111,8.8-.111,19.669-.111,19.667.05,19.667.111" transform="translate(-90.36 -197.021)" fill="#e0e0e0"/>
        <path id="Path_148" data-name="Path 148" d="M135.734,222.156l1.341.726-.6,1.01-1.354-.8.024,1.489h-1.157l.012-1.5-1.354.813-.591-1.01,1.342-.726-1.342-.739.591-1.009,1.354.812-.012-1.5h1.157l-.024,1.5,1.354-.812.6,1.009Z" transform="translate(-75.518 -125.651)" fill="#bb0a36"/>
        <path id="Path_149" data-name="Path 149" d="M171.65,222.156l1.341.726-.6,1.01-1.354-.8.024,1.489H169.9l.012-1.5-1.354.813-.591-1.01,1.342-.726-1.342-.739.591-1.009,1.354.812-.012-1.5h1.157l-.024,1.5,1.354-.812.6,1.009Z" transform="translate(-96.057 -125.651)" fill="#bb0a36"/>
        <path id="Path_150" data-name="Path 150" d="M206.615,222.156l1.341.726-.6,1.01-1.354-.8.024,1.489h-1.157l.012-1.5-1.354.813-.591-1.01,1.341-.726-1.341-.739.591-1.009,1.354.812-.012-1.5h1.157l-.024,1.5,1.354-.812.6,1.009Z" transform="translate(-116.052 -125.651)" fill="#bb0a36"/>
        <path id="Path_151" data-name="Path 151" d="M240.484,222.156l1.341.726-.6,1.01-1.354-.8.024,1.489h-1.157l.012-1.5-1.354.813-.591-1.01,1.341-.726-1.341-.739.591-1.009,1.354.812-.012-1.5h1.157l-.024,1.5,1.354-.812.6,1.009Z" transform="translate(-135.421 -125.651)" fill="#bb0a36"/>
        <path id="Path_152" data-name="Path 152" d="M274.089,222.156l1.341.726-.6,1.01-1.354-.8.024,1.489h-1.157l.012-1.5-1.354.813-.591-1.01,1.341-.726-1.341-.739.591-1.009,1.354.812-.012-1.5H273.5l-.024,1.5,1.354-.812.6,1.009Z" transform="translate(-154.638 -125.651)" fill="#bb0a36"/>
        <path id="Path_153" data-name="Path 153" d="M133.517,223.727h-6.49A3.029,3.029,0,0,1,124,220.7V209.185a3.029,3.029,0,0,1,3.025-3.025h6.49a3.029,3.029,0,0,1,3.026,3.025V220.7a3.029,3.029,0,0,1-3.026,3.025m-6.49-17.353a2.814,2.814,0,0,0-2.811,2.811V220.7a2.814,2.814,0,0,0,2.811,2.811h6.49a2.814,2.814,0,0,0,2.812-2.811V209.185a2.815,2.815,0,0,0-2.812-2.811Z" transform="translate(-70.913 -117.896)" fill="#263238"/>
        <path id="Path_154" data-name="Path 154" d="M168.706,223.727h-6.49a3.029,3.029,0,0,1-3.025-3.025V209.185a3.029,3.029,0,0,1,3.025-3.025h6.49a3.029,3.029,0,0,1,3.026,3.025V220.7a3.029,3.029,0,0,1-3.026,3.025m-6.49-17.353a2.814,2.814,0,0,0-2.811,2.811V220.7a2.814,2.814,0,0,0,2.811,2.811h6.49a2.814,2.814,0,0,0,2.812-2.811V209.185a2.815,2.815,0,0,0-2.812-2.811Z" transform="translate(-91.036 -117.896)" fill="#263238"/>
        <path id="Path_155" data-name="Path 155" d="M202.929,223.727h-6.49a3.029,3.029,0,0,1-3.025-3.025V209.185a3.029,3.029,0,0,1,3.025-3.025h6.49a3.029,3.029,0,0,1,3.026,3.025V220.7a3.029,3.029,0,0,1-3.026,3.025m-6.49-17.353a2.814,2.814,0,0,0-2.811,2.811V220.7a2.814,2.814,0,0,0,2.811,2.811h6.49a2.814,2.814,0,0,0,2.812-2.811V209.185a2.815,2.815,0,0,0-2.812-2.811Z" transform="translate(-110.607 -117.896)" fill="#263238"/>
        <path id="Path_156" data-name="Path 156" d="M237.54,223.727h-6.49a3.028,3.028,0,0,1-3.025-3.025V209.185a3.028,3.028,0,0,1,3.025-3.025h6.49a3.029,3.029,0,0,1,3.026,3.025V220.7a3.029,3.029,0,0,1-3.026,3.025m-6.49-17.353a2.814,2.814,0,0,0-2.811,2.811V220.7a2.814,2.814,0,0,0,2.811,2.811h6.49a2.814,2.814,0,0,0,2.812-2.811V209.185a2.815,2.815,0,0,0-2.812-2.811Z" transform="translate(-130.4 -117.896)" fill="#263238"/>
        <path id="Path_157" data-name="Path 157" d="M271.145,223.727h-6.49a3.029,3.029,0,0,1-3.025-3.025V209.185a3.029,3.029,0,0,1,3.025-3.025h6.49a3.029,3.029,0,0,1,3.026,3.025V220.7a3.029,3.029,0,0,1-3.026,3.025m-6.49-17.353a2.814,2.814,0,0,0-2.811,2.811V220.7a2.814,2.814,0,0,0,2.811,2.811h6.49a2.814,2.814,0,0,0,2.811-2.811V209.185a2.815,2.815,0,0,0-2.811-2.811Z" transform="translate(-149.618 -117.896)" fill="#263238"/>
        <path id="Path_158" data-name="Path 158" d="M192.095,292.4H129.07a4.833,4.833,0,0,1-4.833-4.834v-3.065a4.833,4.833,0,0,1,4.833-4.834h63.025a4.834,4.834,0,0,1,4.834,4.834v3.065a4.834,4.834,0,0,1-4.834,4.834" transform="translate(-71.047 -159.936)" fill="#bb0a36"/>
        <path id="Path_159" data-name="Path 159" d="M187.7,288.566h1.957a2.164,2.164,0,1,1,0,4.307H187.7Zm1.908,3.489a1.338,1.338,0,1,0,0-2.671H188.7v2.671Z" transform="translate(-107.34 -165.022)" fill="#fff"/>
        <path id="Path_160" data-name="Path 160" d="M198.844,292.484a1.822,1.822,0,1,1,1.822,1.7,1.7,1.7,0,0,1-1.822-1.7m2.665,0a.849.849,0,1,0-.843.917.836.836,0,0,0,.843-.917" transform="translate(-113.713 -166.287)" fill="#fff"/>
        <path id="Path_161" data-name="Path 161" d="M212.222,292.244v1.9h-.96v-1.748c0-.536-.246-.781-.671-.781-.462,0-.794.283-.794.892v1.637h-.96v-3.311h.917v.388a1.45,1.45,0,0,1,1.1-.437,1.3,1.3,0,0,1,1.372,1.465" transform="translate(-119.428 -166.287)" fill="#fff"/>
        <path id="Path_162" data-name="Path 162" d="M221.755,292.754h-2.5a.883.883,0,0,0,.948.664,1.123,1.123,0,0,0,.831-.32l.511.554a1.933,1.933,0,0,1-3.255-1.169,1.685,1.685,0,0,1,1.766-1.7,1.639,1.639,0,0,1,1.723,1.717c0,.074-.012.179-.019.259m-2.517-.56h1.631a.827.827,0,0,0-1.631,0" transform="translate(-124.83 -166.287)" fill="#fff"/>
        <path id="Path_163" data-name="Path 163" d="M203.141,90.445a12.865,12.865,0,1,1-12.865-12.864,12.865,12.865,0,0,1,12.865,12.864" transform="translate(-101.456 -44.366)" fill="#bb0a36"/>
        <path id="Path_164" data-name="Path 164" d="M201.885,97.21h-.214v-1.2a2.509,2.509,0,0,1,5.019,0v.979h-.214v-.979a2.3,2.3,0,0,0-4.591,0Z" transform="translate(-115.329 -53.469)" fill="#fff"/>
        <path id="Path_165" data-name="Path 165" d="M204.976,110.412H198.6a1.06,1.06,0,0,1-1.058-1.058v-6.38a1.059,1.059,0,0,1,1.058-1.058h6.38a1.059,1.059,0,0,1,1.058,1.058v6.38a1.06,1.06,0,0,1-1.058,1.058m-6.38-8.282a.845.845,0,0,0-.844.844v6.38a.845.845,0,0,0,.844.844h6.38a.845.845,0,0,0,.844-.844v-6.38a.845.845,0,0,0-.844-.844Z" transform="translate(-112.966 -58.283)" fill="#fff"/>
        <path id="Path_166" data-name="Path 166" d="M206.2,109.652a1,1,0,1,1,1-1,1,1,0,0,1-1,1m0-1.789a.787.787,0,1,0,.787.787.788.788,0,0,0-.787-.787" transform="translate(-117.344 -61.561)" fill="#fff"/>
        <rect id="Rectangle_136" data-name="Rectangle 136" width="0.214" height="1.808" transform="translate(88.713 47.937)" fill="#fff"/>
      </g>
    </g>
    <path id="Path_167" data-name="Path 167" d="M393.29,397.99l-8.08-18.637-9.27,5.95,9.831,17.037,4.928-2.21Z" transform="translate(-214.989 -216.94)" fill="#ffbe9d"/>
    <g id="Group_778" data-name="Group 778">
      <g id="Group_777" data-name="Group 777" clip-path="url(#clip-path)">
        <path id="Path_168" data-name="Path 168" d="M404.618,420.458l.268.527s10.768-.917,11.72.733l-17.827,8.873-2.71-6.053a11.393,11.393,0,0,0,8.549-4.08" transform="translate(-226.5 -240.447)" fill="#bb0a36"/>
        <g id="Group_764" data-name="Group 764" transform="translate(172.064 184.908)" opacity="0.6">
          <g id="Group_763" data-name="Group 763">
            <g id="Group_762" data-name="Group 762" clip-path="url(#clip-path-8)">
              <path id="Path_169" data-name="Path 169" d="M402.15,432.076a.813.813,0,0,0-.09,1.081.782.782,0,0,0,1.071.1.858.858,0,0,0,.089-1.146.811.811,0,0,0-1.126.021" transform="translate(-401.895 -431.895)" fill="#fff"/>
            </g>
          </g>
        </g>
        <g id="Group_767" data-name="Group 767" transform="translate(171.628 180.716)" opacity="0.6">
          <g id="Group_766" data-name="Group 766">
            <g id="Group_765" data-name="Group 765" clip-path="url(#clip-path-9)">
              <path id="Path_170" data-name="Path 170" d="M401.528,431.533l-.652-1.456,17.325-7.971s.965-.05,1.154.554Z" transform="translate(-400.876 -422.106)" fill="#fff"/>
            </g>
          </g>
        </g>
        <path id="Path_171" data-name="Path 171" d="M415.274,421.7c.041.089-.375.345-.664.838s-.335.972-.432.977c-.089.023-.218-.562.143-1.153s.933-.752.954-.663" transform="translate(-236.799 -241.145)" fill="#263238"/>
        <path id="Path_172" data-name="Path 172" d="M421.167,421.348c.062.074-.241.41-.354.926s0,.947-.092.986c-.075.054-.389-.426-.237-1.063s.64-.931.683-.849" transform="translate(-240.438 -240.948)" fill="#263238"/>
        <path id="Path_173" data-name="Path 173" d="M426.652,422.906c-.07.058-.408-.317-.421-.9s.3-.98.372-.926-.052.434-.033.917.165.862.083.914" transform="translate(-243.748 -240.797)" fill="#263238"/>
        <path id="Path_174" data-name="Path 174" d="M366.829,403.309,367.138,383l-10.9,1.606,1.946,19.573,5.4.015Z" transform="translate(-203.723 -219.025)" fill="#ffbe9d"/>
        <path id="Path_175" data-name="Path 175" d="M368.9,428.052l.027.591s10.191,3.6,10.379,5.493l-19.9.747.022-6.632a11.392,11.392,0,0,0,9.471-.2" transform="translate(-205.535 -244.79)" fill="#bb0a36"/>
        <g id="Group_770" data-name="Group 770" transform="translate(155.44 185.462)" opacity="0.6">
          <g id="Group_769" data-name="Group 769">
            <g id="Group_768" data-name="Group 768" clip-path="url(#clip-path-10)">
              <path id="Path_176" data-name="Path 176" d="M363.617,433.231a.813.813,0,0,0-.527.948.782.782,0,0,0,.935.531.857.857,0,0,0,.553-1.007.811.811,0,0,0-1.034-.444" transform="translate(-363.066 -433.19)" fill="#fff"/>
            </g>
          </g>
        </g>
        <g id="Group_773" data-name="Group 773" transform="translate(153.874 188.366)" opacity="0.6">
          <g id="Group_772" data-name="Group 772">
            <g id="Group_771" data-name="Group 771" clip-path="url(#clip-path-11)">
              <path id="Path_177" data-name="Path 177" d="M359.409,441.7l.005-1.595,19.07-.132s.9.352.824.98Z" transform="translate(-359.409 -439.973)" fill="#fff"/>
            </g>
          </g>
        </g>
        <path id="Path_178" data-name="Path 178" d="M379.446,429.451c0,.1-.484.16-.95.49s-.706.748-.8.713c-.09-.015.033-.6.6-.992s1.16-.3,1.142-.211" transform="translate(-215.979 -245.544)" fill="#263238"/>
        <path id="Path_179" data-name="Path 179" d="M385.066,431.341c.026.093-.389.274-.7.7s-.393.861-.491.861c-.091.018-.179-.548.222-1.067s.966-.584.972-.492" transform="translate(-219.48 -246.65)" fill="#263238"/>
        <path id="Path_180" data-name="Path 180" d="M389.576,434.844c-.088.024-.241-.456-.012-1s.676-.771.721-.691-.226.374-.408.822-.2.854-.3.867" transform="translate(-222.711 -247.699)" fill="#263238"/>
        <path id="Path_181" data-name="Path 181" d="M337.108,215.638l-.405-15.993-15.567.819-.506,1.892a85.605,85.605,0,0,0-2.037,8.9,37.607,37.607,0,0,0,1.7,19.957c2.626,7.16,6.754,20.781,6.754,20.781L342.5,294.653l17.983-5.912Z" transform="translate(-181.843 -114.171)" fill="#263238"/>
        <path id="Path_182" data-name="Path 182" d="M365.166,198.437l1.36,4.428c1.995,1.268,5.217,7.58,5.513,10.157a146.874,146.874,0,0,1,.268,21.744c-.5,8.507-4.712,58.3-4.712,58.3l-17.015.9,1.773-80.514.747-14.376Z" transform="translate(-200.486 -113.48)" fill="#263238"/>
        <path id="Path_183" data-name="Path 183" d="M316.555,221.733a2.582,2.582,0,0,0,.588.175,9.663,9.663,0,0,0,1.659.223,10.81,10.81,0,0,0,9.516-4.716,9.675,9.675,0,0,0,.827-1.456,2.606,2.606,0,0,0,.217-.574c-.044-.022-.362.8-1.182,1.932a11.138,11.138,0,0,1-9.371,4.645,22.614,22.614,0,0,1-2.254-.23" transform="translate(-181.028 -123.172)" fill="#455a64"/>
        <path id="Path_184" data-name="Path 184" d="M383.125,210.238a1.183,1.183,0,0,0,.1.369,8.46,8.46,0,0,0,.393.962,12.382,12.382,0,0,0,4.489,5.092,8.535,8.535,0,0,0,.9.511,1.187,1.187,0,0,0,.354.143c.019-.036-.456-.295-1.165-.793a14.262,14.262,0,0,1-4.432-5.028c-.406-.767-.6-1.27-.641-1.256" transform="translate(-219.095 -120.228)" fill="#455a64"/>
        <path id="Path_185" data-name="Path 185" d="M351.363,241.989s.042.111.114.331l.313.98,1.182,3.774,4.308,13.893c3.693,11.713,8.38,28.029,14.664,45.687l2.141,6.265.037.109-.109.036-17.985,5.9-.1.032-.035-.1-10.338-28.672-2.943-8.216-.774-2.187-.2-.565c-.043-.127-.061-.193-.061-.193s.029.062.077.187l.211.559.806,2.176,3,8.2,10.416,28.644-.133-.064,17.981-5.919-.072.145-2.142-6.266c-6.285-17.662-10.948-33.985-14.6-45.712-1.788-5.871-3.236-10.623-4.239-13.915-.494-1.64-.878-2.915-1.141-3.787l-.292-.987c-.064-.222-.092-.338-.092-.338" transform="translate(-195.342 -138.386)" fill="#455a64"/>
        <path id="Path_186" data-name="Path 186" d="M343.485,116.742s-.814-4.555-3.146-6.731-12.056-4.645-12.056-4.645.115,3.375-2.058,4.281a5.481,5.481,0,0,1-6.435-1.269,9.314,9.314,0,0,1-2.216-4.232s-11.524,1.682-13.166,4.806-3.354,14.98-3.354,14.98L311.5,125.58l-.34,20.287,27.442-1.444-1.536-18.941,7.527.673Z" transform="translate(-172.165 -59.558)" fill="#455a64"/>
        <path id="Path_187" data-name="Path 187" d="M329.161,140.067a1.709,1.709,0,0,0,.013-.458c-.007-.294-.026-.718-.053-1.242-.056-1.048-.148-2.494-.265-4.091s-.237-3.042-.335-4.087c-.049-.522-.093-.945-.129-1.237a1.718,1.718,0,0,0-.08-.452,1.7,1.7,0,0,0-.013.457c.007.293.026.718.053,1.242.055,1.048.148,2.5.266,4.093s.237,3.043.335,4.088c.049.523.093.945.129,1.237a1.694,1.694,0,0,0,.08.451" transform="translate(-187.742 -73.485)" fill="#263238"/>
        <path id="Path_188" data-name="Path 188" d="M387.111,132.885c-.064-.015-.6,2.069-1.2,4.653s-1.03,4.693-.966,4.708.6-2.068,1.2-4.654,1.031-4.692.966-4.707" transform="translate(-220.135 -75.993)" fill="#263238"/>
        <path id="Path_189" data-name="Path 189" d="M311.494,113.517c-.006.043.5.108,1.266.355a8.982,8.982,0,0,1,4.859,3.8c.426.687.611,1.159.65,1.142a1.035,1.035,0,0,0-.1-.344,5.765,5.765,0,0,0-.409-.884,8.2,8.2,0,0,0-4.956-3.872,5.7,5.7,0,0,0-.956-.183,1.037,1.037,0,0,0-.357-.01" transform="translate(-178.134 -64.911)" fill="#263238"/>
        <path id="Path_190" data-name="Path 190" d="M392.5,119.988a9.515,9.515,0,0,0-.586,2.945,9.518,9.518,0,0,0,.586-2.945" transform="translate(-224.112 -68.617)" fill="#263238"/>
        <path id="Path_191" data-name="Path 191" d="M305.395,151.047s3.92,15.545,4.345,16.871,1.187,4.914,4.972,5.465c5.11.744,24.933-1.007,24.933-1.007l-4-4.545-17.633-3.958-2.976-11.3Z" transform="translate(-174.646 -86.379)" fill="#ffbe9d"/>
        <path id="Path_192" data-name="Path 192" d="M376.127,184.015a1.11,1.11,0,0,0-.129.37,5.169,5.169,0,0,0-.144,1.058,6.048,6.048,0,0,0,.89,3.384,7.064,7.064,0,0,0,1.22,1.516,3.8,3.8,0,0,0,1.373.813,3.712,3.712,0,0,0,1.057.18,1.161,1.161,0,0,0,.391-.033,8,8,0,0,1-1.391-.306,3.863,3.863,0,0,1-1.281-.816,7.4,7.4,0,0,1-1.166-1.48,6.33,6.33,0,0,1-.924-3.256c-.006-.883.148-1.421.1-1.43" transform="translate(-214.936 -105.232)" fill="#eb996e"/>
        <path id="Path_193" data-name="Path 193" d="M314.289,144a1.891,1.891,0,0,1-.47-.046l-1.267-.185c-1.069-.155-2.553-.329-4.191-.542a41.65,41.65,0,0,1-4.173-.725c-.528-.127-.952-.242-1.24-.337A1.911,1.911,0,0,1,302.5,142c.01-.036.658.133,1.717.344s2.532.444,4.169.657,3.121.413,4.187.609c.533.1.964.185,1.258.257a1.876,1.876,0,0,1,.453.133" transform="translate(-172.993 -81.204)" fill="#e6a790"/>
        <path id="Path_194" data-name="Path 194" d="M314.5,132.879a1.4,1.4,0,0,1-.406.022c-.261,0-.638-.012-1.1-.035-.931-.045-2.215-.147-3.627-.322s-2.682-.394-3.6-.579c-.457-.092-.825-.174-1.078-.238a1.4,1.4,0,0,1-.388-.121,11.132,11.132,0,0,1,1.494.2c.919.143,2.188.335,3.6.512s2.684.3,3.61.388a11.249,11.249,0,0,1,1.5.173" transform="translate(-174.024 -75.258)" fill="#e6a790"/>
        <path id="Path_195" data-name="Path 195" d="M315.191,123.343a5.487,5.487,0,0,1-1.22-.01,25.456,25.456,0,0,1-5.778-1.085,5.516,5.516,0,0,1-1.141-.433,7.774,7.774,0,0,1,1.185.278c.726.188,1.733.429,2.856.641s2.149.35,2.893.438a7.807,7.807,0,0,1,1.205.171" transform="translate(-175.593 -69.659)" fill="#e6a790"/>
        <path id="Path_196" data-name="Path 196" d="M330.372,112.273a8.369,8.369,0,0,1-1.376.409c-.858.22-2.05.5-3.375.762s-2.533.468-3.41.6a8.4,8.4,0,0,1-1.427.151,9.54,9.54,0,0,1,1.4-.31l3.392-.66,3.384-.7a9.617,9.617,0,0,1,1.412-.252" transform="translate(-183.446 -64.202)" fill="#e6a790"/>
        <path id="Path_197" data-name="Path 197" d="M376.438,116.672a2.267,2.267,0,0,1-.491-.172l-1.308-.537c-1.1-.458-2.626-1.084-4.321-1.747s-3.241-1.234-4.361-1.644l-1.325-.491a2.294,2.294,0,0,1-.477-.206,2.274,2.274,0,0,1,.506.122c.321.092.783.236,1.35.423,1.135.372,2.693.921,4.391,1.585s3.215,1.315,4.3,1.811c.544.247.981.454,1.28.6a2.287,2.287,0,0,1,.455.253" transform="translate(-208.249 -63.976)" fill="#e6a790"/>
        <path id="Path_198" data-name="Path 198" d="M355.051,128.712a1.2,1.2,0,0,1-.268-.028l-.759-.123-2.785-.486c-2.35-.411-5.6-.981-9.211-1.417-1.807-.212-3.534-.36-5.107-.453s-2.993-.116-4.185-.1c-.6,0-1.135.024-1.608.037s-.881.034-1.213.056l-.768.039a1.217,1.217,0,0,1-.269,0,1.168,1.168,0,0,1,.265-.044l.765-.081c.333-.036.74-.072,1.214-.094s1.013-.066,1.611-.072c1.2-.04,2.62-.021,4.2.048s3.312.223,5.123.436c3.622.437,6.869,1.033,9.213,1.484,1.173.226,2.119.42,2.773.558l.751.165a1.2,1.2,0,0,1,.259.073" transform="translate(-188.075 -72.014)" fill="#e6a790"/>
        <path id="Path_199" data-name="Path 199" d="M344.52,145.186a2.916,2.916,0,0,1-.589-.014c-.378-.023-.924-.07-1.6-.14-1.347-.139-3.2-.385-5.236-.755s-3.858-.8-5.168-1.142c-.655-.173-1.182-.321-1.544-.433a2.953,2.953,0,0,1-.556-.195,2.912,2.912,0,0,1,.579.109l1.56.363c1.317.305,3.141.7,5.169,1.075s3.875.64,5.215.819l1.588.211a2.911,2.911,0,0,1,.58.1" transform="translate(-188.619 -81.494)" fill="#e6a790"/>
        <path id="Path_200" data-name="Path 200" d="M374.271,149a82.89,82.89,0,0,1-8.7.082,82.9,82.9,0,0,1,8.7-.082" transform="translate(-209.056 -85.163)" fill="#e6a790"/>
        <path id="Path_201" data-name="Path 201" d="M341.725,159.819a1.907,1.907,0,0,1-.474-.021c-.3-.028-.741-.082-1.28-.159-1.078-.153-2.561-.416-4.181-.794s-3.065-.8-4.1-1.143c-.517-.17-.933-.316-1.217-.426a1.931,1.931,0,0,1-.434-.191,1.887,1.887,0,0,1,.462.106l1.237.356c1.044.3,2.491.7,4.1,1.075s3.086.663,4.154.857l1.266.23a1.908,1.908,0,0,1,.462.11" transform="translate(-188.739 -89.831)" fill="#e6a790"/>
        <path id="Path_202" data-name="Path 202" d="M368.458,162.893a7.191,7.191,0,0,1-1.379.014c-.851-.031-2.025-.116-3.314-.283s-2.447-.386-3.277-.573a7.221,7.221,0,0,1-1.329-.366,9.579,9.579,0,0,1,1.361.208c.836.146,1.992.338,3.275.5s2.449.277,3.294.348a9.577,9.577,0,0,1,1.369.147" transform="translate(-205.392 -92.459)" fill="#e6a790"/>
        <path id="Path_203" data-name="Path 203" d="M351.85,175.943a.576.576,0,0,1-.174.07c-.116.037-.287.1-.512.155a16.693,16.693,0,0,1-1.927.4,25.125,25.125,0,0,1-6.481.054,50.679,50.679,0,0,1-6.372-1.194c-.8-.2-1.454-.369-1.9-.492a4.307,4.307,0,0,1-.688-.214,4.352,4.352,0,0,1,.709.127l1.916.421a61.872,61.872,0,0,0,6.361,1.125,27.384,27.384,0,0,0,6.434.013c.819-.1,1.476-.228,1.928-.327a5.042,5.042,0,0,1,.707-.139" transform="translate(-190.887 -99.917)" fill="#e6a790"/>
        <path id="Path_204" data-name="Path 204" d="M393.263,139.935a13.477,13.477,0,0,1-2.171.177,8.623,8.623,0,0,1-2.182-.051,13.407,13.407,0,0,1,2.171-.177,8.575,8.575,0,0,1,2.182.051" transform="translate(-222.406 -79.979)" fill="#e6a790"/>
        <path id="Path_205" data-name="Path 205" d="M394.569,127.581a6.234,6.234,0,0,1-2.37-.154,6.233,6.233,0,0,1,2.37.154" transform="translate(-224.286 -72.837)" fill="#e6a790"/>
        <path id="Path_206" data-name="Path 206" d="M355.393,153.9c-.021-.039.449-.272,1.088-.8a7.6,7.6,0,0,0,1.02-1.038,7.74,7.74,0,0,0,1.537-3.182,7.561,7.561,0,0,0,.178-1.445c.019-.832-.091-1.344-.047-1.352a1.139,1.139,0,0,1,.1.354,2.67,2.67,0,0,1,.069.426,4.566,4.566,0,0,1,.039.572,6.774,6.774,0,0,1-.134,1.488,7.341,7.341,0,0,1-1.58,3.272,6.822,6.822,0,0,1-1.081,1.03,4.566,4.566,0,0,1-.473.325,2.7,2.7,0,0,1-.376.212,1.139,1.139,0,0,1-.34.141" transform="translate(-203.238 -83.537)" fill="#263238"/>
        <g id="Group_776" data-name="Group 776" transform="translate(149.696 66.192)" opacity="0.3">
          <g id="Group_775" data-name="Group 775">
            <g id="Group_774" data-name="Group 774" clip-path="url(#clip-path-12)">
              <path id="Path_207" data-name="Path 207" d="M355.78,154.607l-1.668,2.473a7.911,7.911,0,0,1-4.46,2.779,4.668,4.668,0,0,0,6.129-5.252" transform="translate(-349.651 -154.607)"/>
            </g>
          </g>
        </g>
        <path id="Path_208" data-name="Path 208" d="M369.241,73.507a8.29,8.29,0,0,0,4.6-.937,9.742,9.742,0,0,1-4.012-5.885,43.327,43.327,0,0,1-1.472-8.788l-3.792,16.855a10.206,10.206,0,0,0,6.017-.465,1.661,1.661,0,0,1-1.337-.779" transform="translate(-208.481 -33.109)" fill="#263238"/>
        <path id="Path_209" data-name="Path 209" d="M334.376,87.157a11.876,11.876,0,0,1-.917-6.026l-7.647-2.9a13.5,13.5,0,0,1-2.439,5.747c-.468.634-1.024,1.369-.8,2.125a1.6,1.6,0,0,0,1.186,1.013,4.714,4.714,0,0,0,1.625.02L324.4,88.2a58.734,58.734,0,0,1,9.973-1.047" transform="translate(-184.439 -44.739)" fill="#263238"/>
        <path id="Path_210" data-name="Path 210" d="M337.042,40.227c-2.412-.249-4.448.806-6.371,2.282a12.318,12.318,0,0,0-3.979,13.442,9.473,9.473,0,0,0,5.035,5.488,9.576,9.576,0,0,0,9.775-1.717,12,12,0,0,0,3.9-9.34,11.52,11.52,0,0,0-2.267-6.716,8.775,8.775,0,0,0-6.1-3.44" transform="translate(-186.459 -22.984)" fill="#263238"/>
        <path id="Path_211" data-name="Path 211" d="M336.777,48.829a13.221,13.221,0,0,0,.162-2.921,6.352,6.352,0,0,1,3.7-4.929,9.265,9.265,0,0,1,6.332-.3,8.5,8.5,0,0,1,4.145,2.33,6.7,6.7,0,0,1,1.623,5.926l-11-.873a12.171,12.171,0,0,1-3.159,2.389,2.255,2.255,0,0,1-1.126.256,1.017,1.017,0,0,1-.893-.643,2.156,2.156,0,0,1,.217-1.234" transform="translate(-192.446 -23.032)" fill="#263238"/>
        <path id="Path_212" data-name="Path 212" d="M347.334,48.171l-9.38,2.638a1.78,1.78,0,0,0-1.544,1.847l1.462,20.577a6.4,6.4,0,0,0,1.595,3.794l.983,1.111a4.7,4.7,0,0,0,7.8-1.1,2.267,2.267,0,0,0,.184-.553,4.262,4.262,0,0,0,.059-.471,14.922,14.922,0,0,0-.039-3.128c-.027-1.839-.048-2.593-.046-2.576,0,0,3.86-.747,4.53-5.827a54.058,54.058,0,0,0-.206-10.015c-.272-3.03-2.382-6.7-5.4-6.3" transform="translate(-192.381 -27.53)" fill="#ffbe9d"/>
        <path id="Path_213" data-name="Path 213" d="M368.588,69.735a.649.649,0,0,1-.608.671.62.62,0,0,1-.684-.567.649.649,0,0,1,.608-.671.621.621,0,0,1,.685.567" transform="translate(-210.044 -39.554)" fill="#263238"/>
        <path id="Path_214" data-name="Path 214" d="M369.151,67.128c-.078.087-.579-.264-1.278-.244s-1.2.383-1.278.3c-.039-.037.039-.192.258-.36a1.781,1.781,0,0,1,1.021-.345,1.71,1.71,0,0,1,1.02.3c.219.159.3.31.257.349" transform="translate(-209.639 -38.017)" fill="#263238"/>
        <path id="Path_215" data-name="Path 215" d="M353.151,70.547a.649.649,0,0,1-.608.671.621.621,0,0,1-.684-.567.65.65,0,0,1,.608-.672.621.621,0,0,1,.685.568" transform="translate(-201.216 -40.018)" fill="#263238"/>
        <path id="Path_216" data-name="Path 216" d="M353.129,67.858c-.078.087-.58-.264-1.278-.244s-1.2.383-1.278.3c-.038-.037.039-.191.259-.36a1.78,1.78,0,0,1,1.021-.345,1.711,1.711,0,0,1,1.02.3c.218.159.3.31.257.349" transform="translate(-200.476 -38.435)" fill="#263238"/>
        <path id="Path_217" data-name="Path 217" d="M362.154,72.9a4.648,4.648,0,0,1,1.129-.235c.178-.023.346-.063.372-.186a.907.907,0,0,0-.133-.525l-.563-1.344a23.339,23.339,0,0,1-1.278-3.519,23.312,23.312,0,0,1,1.559,3.408q.283.708.541,1.352a1.031,1.031,0,0,1,.111.7.448.448,0,0,1-.286.268,1.206,1.206,0,0,1-.3.05,4.529,4.529,0,0,1-1.15.032" transform="translate(-206.829 -38.369)" fill="#263238"/>
        <path id="Path_218" data-name="Path 218" d="M355.321,97.756a12.875,12.875,0,0,1-6.824-1.627s1.8,3.457,6.848,2.849Z" transform="translate(-199.295 -54.973)" fill="#eb996e"/>
        <path id="Path_219" data-name="Path 219" d="M359.443,84.01a1.259,1.259,0,0,0-1.14-.438,1.15,1.15,0,0,0-.782.447.728.728,0,0,0-.033.834.845.845,0,0,0,.921.207,2.649,2.649,0,0,0,.878-.557.76.76,0,0,0,.194-.212.233.233,0,0,0-.008-.259" transform="translate(-204.37 -47.786)" fill="#eb996e"/>
        <path id="Path_220" data-name="Path 220" d="M357.887,81.917c.113-.01.135.748.8,1.269s1.467.416,1.476.521c.012.048-.176.152-.516.17a1.887,1.887,0,0,1-1.231-.393,1.644,1.644,0,0,1-.62-1.065c-.037-.316.042-.506.094-.5" transform="translate(-204.605 -46.846)" fill="#263238"/>
        <path id="Path_221" data-name="Path 221" d="M352.453,63.134c-.064.191-.763.12-1.58.241-.819.1-1.473.361-1.586.194-.051-.08.059-.262.322-.453a2.779,2.779,0,0,1,2.412-.331c.3.113.459.259.432.349" transform="translate(-199.739 -35.825)" fill="#263238"/>
        <path id="Path_222" data-name="Path 222" d="M368.735,59.952c-.119.162-.6.01-1.182.018-.579-.012-1.065.135-1.182-.028-.052-.079.021-.24.231-.4a1.712,1.712,0,0,1,1.906.008c.209.158.28.319.228.4" transform="translate(-209.506 -33.889)" fill="#263238"/>
        <path id="Path_223" data-name="Path 223" d="M332.468,47.586c.8-2.961,4.844-7.189,7.909-7.115l5.013,2.7a4.715,4.715,0,0,1-3.031,3.748c-.851.3-1.886.421-2.366,1.186-.489.781-.133,1.871-.585,2.674-.627,1.114-2.476,1.147-2.93,2.341-.2.522-.054,1.128-.262,1.646a3.285,3.285,0,0,1-2.669,1.434c-.718-.192-.775-1.4-1.036-2.019a3.347,3.347,0,0,1-.2-2.238c.243-1.442-.22-2.949.161-4.361" transform="translate(-189.977 -23.144)" fill="#263238"/>
        <path id="Path_224" data-name="Path 224" d="M335.5,76.612c-.011-.377-.47-1.253-.844-1.3-1-.128-2.786,0-2.736,2.523.069,3.45,3.518,2.669,3.522,2.57,0-.077.1-2.49.057-3.791" transform="translate(-189.816 -43.049)" fill="#ffbe9d"/>
        <path id="Path_225" data-name="Path 225" d="M335.538,80.618c-.015-.011-.06.043-.16.092a.6.6,0,0,1-.449.018,1.487,1.487,0,0,1-.715-1.32,1.988,1.988,0,0,1,.151-.864.692.692,0,0,1,.443-.47.307.307,0,0,1,.358.157c.048.1.027.165.046.17s.073-.059.042-.2a.384.384,0,0,0-.14-.214.454.454,0,0,0-.334-.081.845.845,0,0,0-.617.548,2.039,2.039,0,0,0-.189.966,1.56,1.56,0,0,0,.906,1.472.645.645,0,0,0,.548-.1c.1-.087.122-.165.11-.171" transform="translate(-190.988 -44.549)" fill="#eb996e"/>
        <path id="Path_226" data-name="Path 226" d="M321.872,52.569h0c-.059-1.077-1.449-1.693-2.514-1.868a4.483,4.483,0,0,0-3.062.8,2.207,2.207,0,0,0-1.144,1.431c-.083.625.559,1.322,1.134,1.063a2.044,2.044,0,1,0,2.2,3.359,4.567,4.567,0,0,1-1.629,2.559,5.127,5.127,0,0,0,5.01-7.338" transform="translate(-180.177 -28.97)" fill="#263238"/>
        <path id="Path_227" data-name="Path 227" d="M316.935,83.94c.017-.164.446-.239,1.061-.423a6,6,0,0,0,3.725-2.911c.327-.553.5-.951.667-.928.147.018.259.486.084,1.224a4.594,4.594,0,0,1-4.37,3.416c-.757-.009-1.186-.23-1.167-.377" transform="translate(-181.245 -45.565)" fill="#263238"/>
        <path id="Path_228" data-name="Path 228" d="M325.931,59.423a3.087,3.087,0,0,1-.2-1.024,7.593,7.593,0,0,1,1.275-4.8,3.085,3.085,0,0,1,.678-.792,11.473,11.473,0,0,0-1.5,3.144,11.481,11.481,0,0,0-.258,3.474" transform="translate(-186.265 -30.197)" fill="#ff5a7f"/>
        <path id="Path_229" data-name="Path 229" d="M360.509,44.366c.408,1.38,2.654,3.036,3.66,4.066,1.919,1.964,2.316,2.632,2.6,7.283a9.873,9.873,0,0,0,1.095-5.085,7.522,7.522,0,0,0-2.315-4.8,5.856,5.856,0,0,0-5.042-1.462" transform="translate(-206.164 -25.308)" fill="#263238"/>
        <path id="Path_230" data-name="Path 230" d="M391.909,132.415s-2.3,9.57-3.252,13.7c-1.007,4.391-3.187,14.356-9.03,12.914-4.444-1.1-3.455-6.834-3.455-6.834l3.8-13.174,3.511.4,3.224-7.935,3.474-3.662Z" transform="translate(-215.067 -73.099)" fill="#ffbe9d"/>
        <path id="Path_231" data-name="Path 231" d="M379.48,167.85a4.881,4.881,0,0,1-.114-2.131,6.642,6.642,0,0,1,.821-2.167,18.78,18.78,0,0,1,1.7-2.32,18.518,18.518,0,0,0,1.7-2.36,14.236,14.236,0,0,0,1.034-2.142,12.9,12.9,0,0,0,.482-1.527,2.434,2.434,0,0,0,.106-.578,3.254,3.254,0,0,0-.2.552c-.117.357-.289.872-.549,1.49a15.75,15.75,0,0,1-1.066,2.091,20.007,20.007,0,0,1-1.7,2.323,17.516,17.516,0,0,0-1.7,2.361,6.516,6.516,0,0,0-.8,2.25,4.14,4.14,0,0,0,.065,1.608,2.82,2.82,0,0,0,.142.414c.041.092.065.138.073.135" transform="translate(-216.825 -88.425)" fill="#eb996e"/>
        <path id="Path_232" data-name="Path 232" d="M400.252,127.937c0-.169.084-2.955.14-3.685a3.753,3.753,0,0,1,.383-1.321,1.121,1.121,0,0,1,1.746-.309l.063.057a4.916,4.916,0,0,1,1.377-1.658c.815-.534,1.489-.9,2.192-.478a1.211,1.211,0,0,1,.674,1.012s1.04-.14,1.489.281,0,1.686,0,1.686.927-.281,1.152.393a1.865,1.865,0,0,1-.2,1.377s.73.225.815.759-.731,1.124-.731,1.124l-2.536,2.018a4.82,4.82,0,0,1-1.958,2.588c-1.764.68-4.609-3.843-4.609-3.843" transform="translate(-228.892 -68.83)" fill="#ffbe9d"/>
        <path id="Path_233" data-name="Path 233" d="M403.057,131.018c.027.012.023.107-.052.238a.9.9,0,0,1-1.028.4c-.143-.048-.211-.116-.2-.143.024-.059.348.045.7-.092s.523-.427.58-.4" transform="translate(-229.764 -74.924)" fill="#eb996e"/>
        <path id="Path_234" data-name="Path 234" d="M409.026,123.9c-.037.05-.28-.119-.325-.451s.141-.56.191-.522,0,.241.036.491.144.437.1.483" transform="translate(-233.719 -70.293)" fill="#eb996e"/>
        <path id="Path_235" data-name="Path 235" d="M413.844,127.729c.021.021-.182.26-.563.59a15.847,15.847,0,0,1-1.579,1.159,2.442,2.442,0,0,1-1.01.469.916.916,0,0,1-.874-.319.639.639,0,0,1-.068-.625c.07-.14.157-.172.163-.162s-.046.069-.08.193a.578.578,0,0,0,.114.5.769.769,0,0,0,.716.208,2.445,2.445,0,0,0,.912-.45c.635-.421,1.206-.8,1.605-1.1a4,4,0,0,1,.664-.463" transform="translate(-234.293 -73.043)" fill="#eb996e"/>
        <path id="Path_236" data-name="Path 236" d="M415.544,131.9a16.2,16.2,0,0,1-2.421,1.229,2.446,2.446,0,0,1-1.049.308.828.828,0,0,1-.786-.468.486.486,0,0,1,0-.377.446.446,0,0,1,.183-.211c.14-.077.231-.035.226-.025s-.081.017-.174.1a.365.365,0,0,0-.083.45.671.671,0,0,0,.64.323,2.46,2.46,0,0,0,.953-.306,16.238,16.238,0,0,1,2.515-1.021" transform="translate(-235.18 -75.428)" fill="#eb996e"/>
        <path id="Path_237" data-name="Path 237" d="M416.081,135.73c.012.026-.137.129-.417.2a1.906,1.906,0,0,1-.5.053,1.364,1.364,0,0,1-.63-.143.384.384,0,0,1-.186-.364.628.628,0,0,1,.139-.312,2.046,2.046,0,0,1,.363-.354c.231-.172.4-.227.415-.2s-.12.132-.309.323a2.87,2.87,0,0,0-.3.356c-.1.143-.133.286,0,.36a1.4,1.4,0,0,0,.518.125,2.528,2.528,0,0,0,.465,0c.266-.025.432-.072.444-.04" transform="translate(-236.949 -76.975)" fill="#eb996e"/>
        <path id="Path_246" data-name="Path 246" d="M408.147,146.73c-.014,0,.011-.979.056-2.184s.093-2.183.108-2.183-.011.979-.056,2.185-.094,2.183-.108,2.182" transform="translate(-233.404 -81.413)" fill="#263238"/>
        <path id="Path_249" data-name="Path 249" d="M402.954,125.542a6.376,6.376,0,0,0,.743.545.985.985,0,0,1,.451.765.925.925,0,0,1-.548.723,1.733,1.733,0,0,1-2.319-.695" transform="translate(-229.48 -71.794)" fill="#ffbe9d"/>
        <path id="Path_250" data-name="Path 250" d="M401.276,126.878a4.373,4.373,0,0,0,.581.52,1.689,1.689,0,0,0,1.731.048.727.727,0,0,0,.435-.745,1.177,1.177,0,0,0-.476-.622c-.4-.275-.632-.514-.6-.54s.253.158.691.408a1.269,1.269,0,0,1,.588.706.755.755,0,0,1-.089.575,1.212,1.212,0,0,1-.436.415,1.816,1.816,0,0,1-1.093.221,1.721,1.721,0,0,1-.843-.335c-.416-.321-.513-.648-.49-.653" transform="translate(-229.475 -71.792)" fill="#eb996e"/>
        <path id="Path_251" data-name="Path 251" d="M409.341,122.953a10.366,10.366,0,0,0-1.281,1.883,1.58,1.58,0,0,0-.192.675.672.672,0,0,0,.314.6.682.682,0,0,0,.584,0,1.833,1.833,0,0,0,.489-.349,11.815,11.815,0,0,0,1.593-1.769,1.834,1.834,0,0,0,.284-.5.7.7,0,0,0-.036-.561" transform="translate(-233.247 -70.296)" fill="#ffbe9d"/>
        <path id="Path_252" data-name="Path 252" d="M410.952,122.922c.007-.009.109.088.122.319a1.409,1.409,0,0,1-.352.856,10.222,10.222,0,0,1-.849,1.054c-.172.188-.36.379-.561.57a2.133,2.133,0,0,1-.727.519.807.807,0,0,1-.495.012.654.654,0,0,1-.374-.32,1.034,1.034,0,0,1-.017-.858,5.471,5.471,0,0,1,.682-1.182,5.013,5.013,0,0,1,.814-.939,9.951,9.951,0,0,1-.681,1.031,6.07,6.07,0,0,0-.616,1.16.831.831,0,0,0,.015.68.471.471,0,0,0,.6.2,2,2,0,0,0,.645-.466c.2-.185.387-.369.561-.55a13.074,13.074,0,0,0,.872-1.006,1.443,1.443,0,0,0,.393-.761,1.521,1.521,0,0,0-.033-.318" transform="translate(-233.102 -70.295)" fill="#eb996e"/>
      </g>
    </g>
    <g id="Group_780" data-name="Group 780">
      <g id="Group_779" data-name="Group 779" clip-path="url(#clip-path)">
        <path id="Path_253" data-name="Path 253" d="M37.376,274.421c4.075-6.233,3.918-15.343-.949-20.979-1.51-1.749-3.622-3.27-5.924-3.073-2.358.2-4.258,2.224-4.975,4.48a14.66,14.66,0,0,0-.048,7.027c.59,3.261,1.579,6.6,3.84,9.018s5.148,5.116,8.056,3.527" transform="translate(-14.339 -143.168)" fill="#bb0a36"/>
        <path id="Path_254" data-name="Path 254" d="M38.712,360.52a9.313,9.313,0,0,0-2.6-10.577,3.914,3.914,0,0,0-3.33-1.046,3.234,3.234,0,0,0-2.157,2.758,7.668,7.668,0,0,0,.612,3.625,9.156,9.156,0,0,0,2.8,4.3c1.385,1.043,3.322,2.023,4.676.941" transform="translate(-17.491 -199.475)" fill="#bb0a36"/>
        <path id="Path_255" data-name="Path 255" d="M72.2,350.958a13.478,13.478,0,0,1,6.793-14.224c1.552-.807,3.464-1.286,5.028-.5a4.682,4.682,0,0,1,2.244,4.544,11.107,11.107,0,0,1-1.934,4.957A13.258,13.258,0,0,1,79.1,351c-2.27,1.07-5.3,1.889-6.9-.043" transform="translate(-41.151 -192.053)" fill="#e6a790"/>
        <path id="Path_256" data-name="Path 256" d="M70.114,310.887c-1.951-6.3,1.357-13.929,6.87-17.541,1.711-1.121,3.878-1.9,5.79-1.173a5.473,5.473,0,0,1,3.143,5.022,12.983,12.983,0,0,1-1.669,5.992c-1.3,2.631-2.949,5.23-5.463,6.74s-6.583,3.02-8.671.96" transform="translate(-39.774 -166.923)" fill="#bb0a36"/>
        <path id="Path_257" data-name="Path 257" d="M61.71,373.117a1.387,1.387,0,0,0,.064-.3l.131-.878q.04-.291.088-.635l.144-.749c.1-.537.208-1.15.384-1.817q.121-.5.253-1.049l.33-1.123c.21-.781.52-1.589.811-2.451a42.923,42.923,0,0,1,5.579-10.394c.557-.718,1.059-1.424,1.594-2.031l.754-.9.734-.792c.458-.515.91-.942,1.3-1.325l.544-.534.48-.424.659-.595a1.365,1.365,0,0,0,.219-.221,1.349,1.349,0,0,0-.253.18l-.694.557-.5.408-.561.52c-.4.373-.867.794-1.335,1.3l-.751.784-.77.89c-.545.6-1.057,1.308-1.623,2.028a41.081,41.081,0,0,0-5.611,10.455c-.286.869-.59,1.684-.792,2.473l-.316,1.134-.238,1.06c-.165.672-.259,1.291-.348,1.833l-.123.755q-.035.347-.066.641c-.033.361-.06.655-.081.886a1.352,1.352,0,0,0-.01.31" transform="translate(-35.288 -198.381)" fill="#263238"/>
        <path id="Path_258" data-name="Path 258" d="M61.254,350.809a.447.447,0,0,0,0-.125c-.007-.1-.016-.218-.027-.365-.032-.342-.075-.809-.129-1.4q-.045-.459-.1-1.01c-.028-.369-.038-.773-.061-1.205-.032-.865-.115-1.848-.084-2.938q0-.818.008-1.71c.006-.594.063-1.211.092-1.85.043-1.281.217-2.639.371-4.07a58.3,58.3,0,0,1,5.3-17.885c.651-1.284,1.245-2.517,1.908-3.615.323-.553.613-1.1.932-1.6l.925-1.438c.569-.93,1.174-1.71,1.672-2.417.255-.35.483-.682.708-.977l.634-.792.871-1.1.221-.291a.448.448,0,0,0,.068-.105s-.033.027-.089.087l-.242.274-.91,1.072-.653.779c-.232.29-.466.62-.727.966-.512.7-1.129,1.475-1.71,2.4l-.943,1.433c-.325.5-.619,1.048-.948,1.6-.673,1.1-1.278,2.332-1.937,3.618a56.973,56.973,0,0,0-5.326,17.961c-.148,1.438-.315,2.8-.348,4.089-.026.642-.077,1.261-.077,1.858s.006,1.169.009,1.716c-.018,1.093.078,2.079.125,2.946.03.433.047.837.083,1.206s.086.7.123,1.009q.114.883.179,1.395l.053.362a.43.43,0,0,0,.027.122" transform="translate(-34.687 -174.941)" fill="#263238"/>
        <path id="Path_259" data-name="Path 259" d="M37.274,267.972a.451.451,0,0,0,.052.116l.176.327.7,1.243c.149.271.329.564.5.9l.545,1.1.629,1.258c.212.45.414.937.639,1.442s.463,1.033.689,1.592l.676,1.755.356.925.328.969.682,2.023c.864,2.793,1.682,5.9,2.373,9.206.669,3.309,1.138,6.491,1.485,9.4.3,2.909.517,5.535.577,7.747.056,1.1.068,2.105.071,2.984s.018,1.636,0,2.255c-.008.6-.015,1.078-.02,1.425,0,.15,0,.271,0,.371a.459.459,0,0,0,.01.127.48.48,0,0,0,.018-.126c.006-.1.015-.221.025-.37q.026-.521.07-1.425c.037-.619.048-1.377.048-2.257s.012-1.883-.032-2.99c-.036-2.217-.236-4.85-.521-7.768-.334-2.912-.8-6.1-1.468-9.422-.693-3.312-1.521-6.43-2.4-9.227l-.695-2.026-.335-.97-.363-.926-.693-1.755c-.231-.559-.483-1.084-.707-1.591s-.44-.989-.658-1.438l-.649-1.253-.566-1.089c-.18-.331-.366-.622-.523-.889l-.741-1.22-.2-.313a.439.439,0,0,0-.075-.1" transform="translate(-21.316 -153.245)" fill="#263238"/>
        <path id="Path_260" data-name="Path 260" d="M40.508,357.3a5.5,5.5,0,0,0,.433.761c.3.476.707,1.18,1.187,2.061s1.01,1.954,1.543,3.168a43.1,43.1,0,0,1,1.5,4.043,43.121,43.121,0,0,1,1.044,4.185c.244,1.3.415,2.487.512,3.486s.161,1.81.183,2.371a5.509,5.509,0,0,0,.071.873,5.481,5.481,0,0,0,.033-.876c.009-.563-.021-1.38-.1-2.386a35.2,35.2,0,0,0-.459-3.515,36.239,36.239,0,0,0-2.559-8.281,35.234,35.234,0,0,0-1.6-3.16c-.5-.874-.938-1.566-1.264-2.026a5.479,5.479,0,0,0-.521-.7" transform="translate(-23.164 -204.327)" fill="#263238"/>
        <path id="Path_261" data-name="Path 261" d="M56.5,401.584H38.6l2.166,18.282h13.5Z" transform="translate(-22.075 -229.654)" fill="#455a64"/>
        <path id="Path_262" data-name="Path 262" d="M56.652,439.676l-1.52,1.973H41.572l-1.564-1.91Z" transform="translate(-22.879 -251.437)" fill="#263238"/>
        <path id="Path_263" data-name="Path 263" d="M40.23,413.965c0,.074,3.714.134,8.3.134s8.3-.06,8.3-.134-3.714-.134-8.3-.134-8.3.06-8.3.134" transform="translate(-23.006 -236.657)" fill="#fafafa"/>
        <path id="Path_264" data-name="Path 264" d="M40.23,416.808c0,.074,3.714.134,8.3.134s8.3-.06,8.3-.134-3.714-.134-8.3-.134-8.3.06-8.3.134" transform="translate(-23.006 -238.283)" fill="#fafafa"/>
        <path id="Path_265" data-name="Path 265" d="M40.752,419.56c0,.074,3.584.134,8.005.134s8.006-.06,8.006-.134-3.583-.134-8.006-.134-8.005.06-8.005.134" transform="translate(-23.305 -239.857)" fill="#fafafa"/>
        <path id="Path_266" data-name="Path 266" d="M74.016,309.555a.619.619,0,0,0,0,.175c.011.134.024.3.041.5.046.458.109,1.074.185,1.822.163,1.537.4,3.659.676,6,.01.089.021.179.03.262l.009.078h.079c2.3.035,4.369.057,5.864.065H82.67l.48-.009a.565.565,0,0,0,.167-.016.622.622,0,0,0-.167-.02l-.479-.025-1.767-.057c-1.494-.04-3.563-.083-5.863-.119l.089.079c-.01-.083-.02-.172-.031-.262-.274-2.342-.532-4.462-.728-6-.1-.745-.181-1.358-.241-1.814-.03-.2-.054-.359-.075-.492a.644.644,0,0,0-.038-.171" transform="translate(-42.325 -177.025)" fill="#263238"/>
        <path id="Path_267" data-name="Path 267" d="M83.5,296.786a.685.685,0,0,0-.014.18c0,.138,0,.307,0,.513,0,.473.01,1.111.017,1.886.023,1.593.066,3.793.126,6.222,0,.1,0,.2.007.287l0,.1.1-.007a55.683,55.683,0,0,1,6.018-.136c.767.024,1.387.055,1.814.078l.493.024a.656.656,0,0,0,.173,0,.609.609,0,0,0-.17-.032c-.112-.015-.277-.036-.49-.057-.427-.044-1.046-.1-1.815-.135a47.511,47.511,0,0,0-6.038.082l.1.088c0-.091,0-.189-.007-.287-.06-2.429-.123-4.629-.179-6.221-.031-.775-.057-1.413-.075-1.885-.012-.205-.022-.374-.03-.512a.708.708,0,0,0-.023-.179" transform="translate(-47.742 -169.723)" fill="#263238"/>
        <path id="Path_268" data-name="Path 268" d="M92.6,292.436a3.208,3.208,0,0,0-.111.525c-.068.37-.158.855-.265,1.439-.232,1.215-.594,2.889-1.106,4.723l-.054.193.182-.087.215-.1a15.393,15.393,0,0,1,4.771-1.4c.635-.078,1.153-.107,1.511-.12a3.789,3.789,0,0,0,.558-.03.428.428,0,0,0-.144-.02c-.095-.006-.234-.018-.414-.02a12.856,12.856,0,0,0-1.525.063,14.506,14.506,0,0,0-4.835,1.36l-.217.1.128.1a45.932,45.932,0,0,0,1.056-4.749c.1-.612.17-1.108.21-1.451a3.032,3.032,0,0,0,.043-.535" transform="translate(-52.077 -167.235)" fill="#263238"/>
        <path id="Path_269" data-name="Path 269" d="M35.616,365.263c0,.027.519-.025,1.354-.058a22.747,22.747,0,0,1,3.255.106c.257.027.509.059.749.092l.086.012.015-.084c.193-1.082.355-2.036.464-2.721a7.454,7.454,0,0,0,.141-1.1,7.556,7.556,0,0,0-.256,1.083c-.14.679-.324,1.629-.524,2.71l.1-.072c-.242-.035-.5-.068-.755-.1a18.244,18.244,0,0,0-3.282-.054c-.419.033-.757.075-.989.11a1.4,1.4,0,0,0-.357.077" transform="translate(-20.368 -206.733)" fill="#263238"/>
        <path id="Path_270" data-name="Path 270" d="M31.667,356.854c.007.029.5-.088,1.311-.188a14.261,14.261,0,0,1,3.176-.032c.193.02.382.045.561.07l.093.013.009-.092c.113-1.113.2-2.1.262-2.808a7.652,7.652,0,0,0,.058-1.142,7.786,7.786,0,0,0-.178,1.129c-.089.706-.2,1.689-.321,2.8l.1-.08c-.182-.026-.373-.052-.569-.072a12.35,12.35,0,0,0-3.213.085c-.407.066-.732.141-.954.2a1.322,1.322,0,0,0-.34.115" transform="translate(-18.109 -201.684)" fill="#263238"/>
        <path id="Path_271" data-name="Path 271" d="M28.834,281.752a.862.862,0,0,0,.178.092l.523.232,1.936.825,6.413,2.656.346.142.082.033.036-.08,2.709-6.118.8-1.85.208-.506a.785.785,0,0,0,.061-.181.794.794,0,0,0-.094.167l-.238.492-.849,1.827-2.759,6.1.117-.047-.346-.142-6.432-2.607-1.957-.771-.536-.2a.823.823,0,0,0-.191-.059" transform="translate(-16.489 -158.406)" fill="#263238"/>
        <path id="Path_272" data-name="Path 272" d="M25.172,263.892a.821.821,0,0,0,.157.116l.47.3,1.748,1.09,5.83,3.555.093.057.039-.1.106-.281,2.443-6.592.721-2,.187-.548a.846.846,0,0,0,.054-.2.87.87,0,0,0-.088.183l-.219.537-.775,1.985-2.493,6.574-.105.281.132-.047-5.859-3.508-1.777-1.04-.487-.275a.832.832,0,0,0-.176-.085" transform="translate(-14.395 -148.278)" fill="#263238"/>
        <path id="Path_273" data-name="Path 273" d="M26.372,254.57a2.5,2.5,0,0,0,.384.227c.252.139.616.344,1.057.618a18.861,18.861,0,0,1,3.244,2.538l.224.22-.075-.306c-.079-.32-.151-.658-.206-1a11.665,11.665,0,0,1,.253-4.77,13.656,13.656,0,0,1,.459-1.388,3.36,3.36,0,0,0,.191-.5,2.852,2.852,0,0,0-.256.476,10.518,10.518,0,0,0-.517,1.381,11.162,11.162,0,0,0-.309,4.833c.057.353.131.7.211,1.021l.149-.086a17.1,17.1,0,0,0-3.308-2.512c-.453-.262-.827-.452-1.088-.573a2.168,2.168,0,0,0-.414-.17" transform="translate(-15.081 -143.082)" fill="#263238"/>
        <path id="Path_274" data-name="Path 274" d="M74.075,354.149a2.556,2.556,0,0,0,.082.462c.063.3.152.724.25,1.258a30.876,30.876,0,0,1,.481,4.239l0,.082.082,0,.4.024c1.775.107,3.382.194,4.546.248l1.379.054a2.757,2.757,0,0,0,.507,0,2.648,2.648,0,0,0-.5-.066l-1.376-.112c-1.162-.086-2.768-.193-4.542-.3l-.4-.024.085.086a26.092,26.092,0,0,0-.539-4.256c-.114-.533-.223-.959-.306-1.25a2.324,2.324,0,0,0-.148-.447" transform="translate(-42.36 -202.527)" fill="#263238"/>
        <path id="Path_275" data-name="Path 275" d="M82.287,342.37a2.483,2.483,0,0,0,.03.467c.038.332.086.758.145,1.272.13,1.077.322,2.572.548,4.249l.01.073.074,0,.576.038c1.819.124,3.458.311,4.644.465l1.4.188a2.893,2.893,0,0,0,.518.052,2.818,2.818,0,0,0-.506-.122c-.328-.066-.8-.152-1.4-.245-1.182-.187-2.825-.4-4.649-.519l-.578-.037.084.077c-.23-1.676-.444-3.168-.606-4.241-.08-.51-.148-.935-.2-1.264a2.433,2.433,0,0,0-.1-.458" transform="translate(-47.055 -195.791)" fill="#263238"/>
        <path id="Path_276" data-name="Path 276" d="M91.959,337.3c-.026.006.083.491.21,1.29a23.133,23.133,0,0,1,.288,3.168l0,.1.1-.013.3-.038a27.875,27.875,0,0,1,3.381-.2l1.028.012a1.56,1.56,0,0,0,.379-.01,1.506,1.506,0,0,0-.375-.06c-.242-.026-.594-.053-1.031-.069a21.731,21.731,0,0,0-3.4.149l-.3.039.1.088a18.5,18.5,0,0,0-.346-3.186c-.08-.4-.158-.718-.219-.935a1.318,1.318,0,0,0-.113-.333" transform="translate(-52.586 -192.89)" fill="#263238"/>
        <path id="Path_277" data-name="Path 277" d="M36.878,349.074a15.779,15.779,0,0,0,.8,1.816,15.688,15.688,0,0,0,.861,1.787,8.4,8.4,0,0,0-.7-1.863,8.41,8.41,0,0,0-.963-1.74" transform="translate(-21.087 -199.624)" fill="#263238"/>
        <path id="Path_278" data-name="Path 278" d="M31.628,354.593a18.631,18.631,0,0,1,2.034.412,18.565,18.565,0,0,1,1.911.811,4.646,4.646,0,0,0-1.857-.984,4.644,4.644,0,0,0-2.088-.239" transform="translate(-18.087 -202.76)" fill="#263238"/>
      </g>
    </g>
  </g>
</svg>
