<svg xmlns="http://www.w3.org/2000/svg" width="88.289" height="70.415" viewBox="0 0 88.289 70.415">
  <g id="Group_1565" data-name="Group 1565" transform="translate(-7714.223 -4541.149)">
    <path id="Path_10990" data-name="Path 10990" d="M97.141,208.106l-.846-1.051,13.775-11.078c.035-.029,3.314-2.554,6.664,1.4l-1.029.872c-2.448-2.889-4.564-1.4-4.8-1.216Z" transform="translate(7679.823 4357.356)" fill="#ff597d"/>
    <path id="Path_10991" data-name="Path 10991" d="M97.225,207.933l-.987-1.228a.467.467,0,0,1,.07-.656l9.284-7.467a.466.466,0,0,1,.655.071l.988,1.228a.466.466,0,0,1-.071.655L97.879,208a.466.466,0,0,1-.655-.071" transform="translate(7679.81 4357.618)" fill="#bb0a36"/>
    <path id="Path_10992" data-name="Path 10992" d="M113.53,197.741h0a1.548,1.548,0,0,0,.358,1.124l1.425,1.7a1.637,1.637,0,0,0,.922.552l.572.12a1.187,1.187,0,0,0,1.427-1.066l.027-.331a1.622,1.622,0,0,0-.559-1.362l-1.823-1.566a1.542,1.542,0,0,0-.885-.369l-.046,0a1.316,1.316,0,0,0-1.418,1.2" transform="translate(7681.178 4357.464)" fill="#bb0a36"/>
    <path id="Path_10993" data-name="Path 10993" d="M101.876,217.57l-.357-1.3,17.047-4.676c.274-.082,2.724-.923,1.815-4.6l1.31-.324c1.244,5.032-2.724,6.21-2.764,6.221Z" transform="translate(7680.233 4358.262)" fill="#ff597d"/>
    <path id="Path_10994" data-name="Path 10994" d="M101.492,215.741l.417,1.52a.465.465,0,0,0,.572.326l11.49-3.153a.465.465,0,0,0,.326-.572l-.417-1.52a.464.464,0,0,0-.572-.326l-11.49,3.152a.466.466,0,0,0-.326.573" transform="translate(7680.23 4358.682)" fill="#bb0a36"/>
    <path id="Path_10995" data-name="Path 10995" d="M118.954,208.2h0a1.549,1.549,0,0,1-.7-.948l-.543-2.15a1.641,1.641,0,0,1,.092-1.071l.238-.534a1.187,1.187,0,0,1,1.7-.533l.285.173a1.619,1.619,0,0,1,.777,1.25l.2,2.395a1.551,1.551,0,0,1-.218.934l-.025.04a1.314,1.314,0,0,1-1.806.444" transform="translate(7681.504 4357.957)" fill="#bb0a36"/>
    <path id="Path_10996" data-name="Path 10996" d="M101.353,240.128l-42.087,5.012a9.208,9.208,0,0,1-10.234-8.055L45.12,204.232a3.642,3.642,0,0,1,3.186-4.047l53.142-6.329a3.641,3.641,0,0,1,4.047,3.185l3.912,32.854a9.207,9.207,0,0,1-8.055,10.232" transform="translate(7675.793 4357.251)" fill="#fff"/>
    <path id="Path_10997" data-name="Path 10997" d="M104.685,198.891,46.6,205.809a2.886,2.886,0,0,1-3.208-2.524l-.5-4.165a2.885,2.885,0,0,1,2.524-3.207L103.506,189a2.886,2.886,0,0,1,3.208,2.524l.5,4.165a2.886,2.886,0,0,1-2.524,3.207" transform="translate(7675.619 4356.87)" fill="#bb0a36"/>
    <path id="Path_10998" data-name="Path 10998" d="M51.438,200.613h0a2.054,2.054,0,0,1-2.283-1.8l-.674-5.659a2.054,2.054,0,1,1,4.08-.485l.674,5.659a2.055,2.055,0,0,1-1.8,2.283" transform="translate(7676.059 4357.018)" fill="#fff"/>
    <path id="Path_10999" data-name="Path 10999" d="M94.475,195.487h0a2.054,2.054,0,0,1-2.283-1.8l-.674-5.658a2.054,2.054,0,0,1,4.08-.487l.674,5.659a2.055,2.055,0,0,1-1.8,2.283" transform="translate(7679.445 4356.615)" fill="#fff"/>
    <path id="Path_11000" data-name="Path 11000" d="M48.009,207.322c.852,4.851,1.633,9.713,2.418,14.573l1.145,7.3.56,3.649.277,1.825.069.456.035.228.043.206.083.412.125.4a6.284,6.284,0,0,0,4.778,4.185,6.025,6.025,0,0,0,1.647.08c.262-.013.58-.059.883-.1l.916-.118,3.661-.471L79.3,238.128l14.665-1.73,3.669-.414.918-.1.458-.052.228-.027.207-.035a5.948,5.948,0,0,0,.825-.166l.407-.109c.133-.045.262-.1.394-.148a7.577,7.577,0,0,0,4.477-4.776c.082-.271.143-.549.21-.824.032-.283.095-.562.108-.846l.018-.427c0-.071.009-.142.009-.214l-.013-.214c-.018-.285-.027-.564-.068-.878l-.4-3.671-.766-7.345c-.489-4.9-.982-9.8-1.4-14.706.778,4.864,1.482,9.736,2.191,14.609l1.03,7.312.5,3.658c.046.3.071.631.1.96l.019.246c0,.083,0,.165,0,.248l-.009.5c-.008.331-.068.658-.1.987-.068.324-.132.65-.22.97a9.023,9.023,0,0,1-1.911,3.46,8.654,8.654,0,0,1-3.256,2.273c-.155.061-.31.126-.467.182l-.482.139a7.408,7.408,0,0,1-.979.214l-.247.043-.231.03-.457.059-.916.118-3.661.471L79.5,239.733l-14.666,1.728-3.669.414-.917.1c-.307.033-.6.073-.952.091a7.468,7.468,0,0,1-2.026-.132,7.973,7.973,0,0,1-1.916-.664,7.748,7.748,0,0,1-1.661-1.152,7.38,7.38,0,0,1-1.292-1.549,8.17,8.17,0,0,1-.485-.885c-.067-.154-.125-.312-.188-.468l-.092-.234-.07-.242-.136-.485-.09-.494-.043-.248-.029-.229-.057-.458L50.98,233l-.453-3.664L49.644,222c-.566-4.891-1.136-9.781-1.635-14.681" transform="translate(7676.023 4357.852)" fill="#ff597d"/>
    <path id="Path_11001" data-name="Path 11001" d="M77.695,242.941a5.5,5.5,0,1,0,5.5-5.5,5.5,5.5,0,0,0-5.5,5.5" transform="translate(7678.359 4360.684)" fill="#ff5a7f"/>
    <path id="Path_11002" data-name="Path 11002" d="M77.738,242.972a4.715,4.715,0,0,0,.475,2.066,5.126,5.126,0,0,0,1.279,1.644,6.1,6.1,0,0,0,3.709,1.457,5.579,5.579,0,0,0,2.02-.289,4.787,4.787,0,0,0,2.937-2.824,4.967,4.967,0,0,0,.325-2.054,5.487,5.487,0,0,0-1.661-3.621A5.3,5.3,0,0,0,83.2,237.9a5.7,5.7,0,0,0-3.7,1.369,5.12,5.12,0,0,0-1.278,1.64,4.769,4.769,0,0,0-.481,2.064m-.081,0a6.229,6.229,0,0,1,1.464-4.08,5.223,5.223,0,0,1,1.825-1.365,5.613,5.613,0,0,1,4.523-.03,5.811,5.811,0,0,1,1.894,1.313,5.542,5.542,0,0,1,1.563,4.162,6.3,6.3,0,0,1-3.534,5.29,5.5,5.5,0,0,1-2.192.55,5.261,5.261,0,0,1-2.243-.425,5.2,5.2,0,0,1-1.831-1.341,6.26,6.26,0,0,1-1.47-4.074" transform="translate(7678.356 4360.652)" fill="rgba(0,0,0,0.26)"/>
    <path id="Path_11003" data-name="Path 11003" d="M78.261,242.632a5.089,5.089,0,0,1,.784-1.957,4.546,4.546,0,0,1,1.591-1.482,4.982,4.982,0,0,1,2.129-.582,4.744,4.744,0,0,1,2.2.368,4.074,4.074,0,0,1,1.715,1.475,4.845,4.845,0,0,1,.722,2.094,5.1,5.1,0,0,1-.227,2.155A3.682,3.682,0,0,1,86,246.447a4.2,4.2,0,0,0,.8-1.847,5.3,5.3,0,0,0-.014-1.961,4.6,4.6,0,0,0-.731-1.757,3.4,3.4,0,0,0-1.413-1.167,4.106,4.106,0,0,0-1.846-.341,4.782,4.782,0,0,0-1.872.381,4.574,4.574,0,0,0-1.561,1.162,6.4,6.4,0,0,0-1.1,1.715" transform="translate(7678.403 4360.775)" fill="rgba(0,0,0,0.26)"/>
    <path id="Path_11004" data-name="Path 11004" d="M83.547,245.684c-2.385-7.319-12.63-8.606-22.54-9.85-9.644-1.21-18.752-2.354-20.632-9.171-.8-2.9-.557-5.375.719-7.371a9.4,9.4,0,0,1,5.918-3.793l.44,2.66-.22-1.33.225,1.329a6.742,6.742,0,0,0-4.1,2.6,6.323,6.323,0,0,0-.381,5.184c1.4,5.083,9.642,6.117,18.368,7.212,10.243,1.286,21.854,2.744,24.769,11.691Z" transform="translate(7675.386 4358.957)" fill="#bb0a36"/>
    <path id="Path_11005" data-name="Path 11005" d="M79.242,243.3A2.762,2.762,0,1,0,82,240.534a2.762,2.762,0,0,0-2.763,2.763" transform="translate(7678.48 4360.927)" fill="#fff"/>
    <path id="Path_11006" data-name="Path 11006" d="M79.242,243.312a2.592,2.592,0,0,0,.849,1.914,2.564,2.564,0,0,0,3.62-3.62A2.58,2.58,0,0,0,82,240.753a2.551,2.551,0,0,0-1.914.646,2.586,2.586,0,0,0-.849,1.913m0,0a2.965,2.965,0,0,1,4.962-2.2,2.982,2.982,0,0,1,0,4.4,2.968,2.968,0,0,1-4.961-2.2" transform="translate(7678.48 4360.912)" fill="rgba(0,0,0,0.28)"/>
    <path id="Path_11007" data-name="Path 11007" d="M74.781,230.173a2.685,2.685,0,0,1-1.5-.458l-8.864-5.953a2.7,2.7,0,1,1,3.007-4.478l6.728,4.52,11.407-15.361a2.7,2.7,0,1,1,4.33,3.216l-12.94,17.425a2.693,2.693,0,0,1-2.167,1.089" transform="translate(7677.22 4358.316)" fill="#4fc162"/>
    <path id="Path_11008" data-name="Path 11008" d="M57.087,186.222h-.873a.272.272,0,0,1-.272-.273v-.872a.273.273,0,0,0-.273-.273H54.9a.272.272,0,0,0-.272.273v.872a.272.272,0,0,1-.272.273h-.873a.273.273,0,0,0-.273.273v.77a.273.273,0,0,0,.273.273h.873a.272.272,0,0,1,.272.272v.873a.272.272,0,0,0,.272.272h.771a.272.272,0,0,0,.273-.272v-.873a.272.272,0,0,1,.272-.272h.873a.273.273,0,0,0,.273-.273v-.77a.273.273,0,0,0-.273-.273" transform="translate(7676.432 4356.542)" fill="#fd5d5d"/>
    <path id="Path_11009" data-name="Path 11009" d="M109.985,191.135h-1.142a.357.357,0,0,1-.357-.357v-1.142a.357.357,0,0,0-.357-.356h-1.01a.356.356,0,0,0-.356.356v1.142a.357.357,0,0,1-.357.357h-1.142a.357.357,0,0,0-.357.357v1.01a.358.358,0,0,0,.357.357h1.142a.357.357,0,0,1,.357.356v1.142a.357.357,0,0,0,.356.357h1.01a.357.357,0,0,0,.357-.357v-1.142a.357.357,0,0,1,.357-.356h1.142a.357.357,0,0,0,.357-.357v-1.01a.357.357,0,0,0-.357-.357" transform="translate(7680.5 4356.894)" fill="#ff597d"/>
    <path id="Path_11010" data-name="Path 11010" d="M114.785,187.874h-.571a.178.178,0,0,1-.179-.178v-.572a.178.178,0,0,0-.178-.178h-.5a.178.178,0,0,0-.179.178v.572a.178.178,0,0,1-.178.178h-.572a.178.178,0,0,0-.178.178v.5a.178.178,0,0,0,.178.179H113a.178.178,0,0,1,.178.178v.572a.178.178,0,0,0,.179.178h.5a.178.178,0,0,0,.178-.178v-.572a.178.178,0,0,1,.179-.178h.571a.178.178,0,0,0,.178-.179v-.5a.178.178,0,0,0-.178-.178" transform="translate(7681.078 4356.71)" fill="#bb0a36"/>
    <path id="Path_11011" data-name="Path 11011" d="M115.816,229.023H114.04a.554.554,0,0,1-.554-.554v-1.776a.554.554,0,0,0-.554-.554h-1.568a.554.554,0,0,0-.554.554v1.776a.554.554,0,0,1-.554.554h-1.776a.554.554,0,0,0-.554.554v1.57a.554.554,0,0,0,.554.554h1.776a.554.554,0,0,1,.554.554v1.774a.554.554,0,0,0,.554.554h1.568a.554.554,0,0,0,.554-.554v-1.774a.554.554,0,0,1,.554-.554h1.776a.554.554,0,0,0,.554-.554v-1.57a.554.554,0,0,0-.554-.554" transform="translate(7680.737 4359.794)" fill="#fe4f60"/>
    <path id="Path_11012" data-name="Path 11012" d="M47.242,241.039H45.466a.554.554,0,0,1-.554-.554v-1.776a.554.554,0,0,0-.554-.554H42.789a.554.554,0,0,0-.554.554v1.776a.554.554,0,0,1-.554.554H39.9a.554.554,0,0,0-.554.554v1.57a.554.554,0,0,0,.554.554H41.68a.554.554,0,0,1,.554.554v1.774a.554.554,0,0,0,.554.554h1.568a.554.554,0,0,0,.554-.554v-1.774a.554.554,0,0,1,.554-.554h1.776a.554.554,0,0,0,.554-.554v-1.57a.554.554,0,0,0-.554-.554" transform="translate(7675.341 4360.74)" fill="#d10034"/>
    <path id="Path_11013" data-name="Path 11013" d="M69.146,247.755h-.77a.241.241,0,0,1-.241-.241v-.77a.239.239,0,0,0-.241-.239h-.68a.24.24,0,0,0-.241.239v.77a.241.241,0,0,1-.241.241h-.77a.241.241,0,0,0-.241.241v.681a.241.241,0,0,0,.241.241h.77a.24.24,0,0,1,.241.241v.769a.241.241,0,0,0,.241.241h.68a.24.24,0,0,0,.241-.241v-.769a.24.24,0,0,1,.241-.241h.77a.241.241,0,0,0,.241-.241V248a.241.241,0,0,0-.241-.241" transform="translate(7677.417 4361.397)" fill="#fd5d5d"/>
    <path id="Path_11014" data-name="Path 11014" d="M43.512,213.087h-.77a.241.241,0,0,1-.241-.241v-.77a.24.24,0,0,0-.241-.241h-.68a.241.241,0,0,0-.241.241v.77a.241.241,0,0,1-.241.241h-.77a.241.241,0,0,0-.241.241v.681a.241.241,0,0,0,.241.241h.77a.24.24,0,0,1,.241.239v.77a.241.241,0,0,0,.241.241h.68a.24.24,0,0,0,.241-.241v-.77a.24.24,0,0,1,.241-.239h.77a.241.241,0,0,0,.241-.241v-.681a.241.241,0,0,0-.241-.241" transform="translate(7675.399 4358.669)" fill="#ff5a7f"/>
    <path id="Path_11015" data-name="Path 11015" d="M71.436,187.262H69.811a.507.507,0,0,1-.507-.507v-1.626a.508.508,0,0,0-.508-.507H67.361a.507.507,0,0,0-.507.507v1.626a.508.508,0,0,1-.508.507H64.721a.507.507,0,0,0-.507.507v1.437a.507.507,0,0,0,.507.507h1.625a.508.508,0,0,1,.508.507v1.626a.507.507,0,0,0,.507.507H68.8a.508.508,0,0,0,.508-.507v-1.626a.507.507,0,0,1,.507-.507h1.625a.507.507,0,0,0,.507-.507v-1.437a.507.507,0,0,0-.507-.507" transform="translate(7677.298 4356.527)" fill="#d10034"/>
    <path id="Path_11016" data-name="Path 11016" d="M43.451,191.206H42.43a.318.318,0,0,1-.318-.318v-1.02a.318.318,0,0,0-.318-.318h-.9a.318.318,0,0,0-.319.318v1.02a.318.318,0,0,1-.318.318h-1.02a.318.318,0,0,0-.318.318v.9a.319.319,0,0,0,.318.319h1.02a.318.318,0,0,1,.318.318v1.02a.318.318,0,0,0,.319.318h.9a.318.318,0,0,0,.318-.318v-1.02a.318.318,0,0,1,.318-.318h1.02a.319.319,0,0,0,.318-.319v-.9a.318.318,0,0,0-.318-.318" transform="translate(7675.307 4356.915)" fill="#ff0040"/>
  </g>
</svg>
