<svg id="noun-arrow-1018952" xmlns="http://www.w3.org/2000/svg" width="19.361" height="19.361" viewBox="0 0 19.361 19.361">
  <path id="Path_10849" data-name="Path 10849" d="M180.481,100.8a9.681,9.681,0,1,0,9.681,9.681A9.69,9.69,0,0,0,180.481,100.8Zm0,1.21a8.471,8.471,0,1,1-8.471,8.471A8.461,8.461,0,0,1,180.481,102.01Zm1.2,4.528a.607.607,0,0,0-.416.189l-3.328,3.328a.6.6,0,0,0,0,.851l3.328,3.328a.605.605,0,1,0,.851-.851l-2.9-2.9,2.9-2.9a.605.605,0,0,0-.435-1.04Z" transform="translate(-170.8 -100.8)" fill="#c7a102"/>
</svg>
